<svg id="Capa_1" data-name="Capa 1" xmlns="http://www.w3.org/2000/svg" xmlns:xlink="http://www.w3.org/1999/xlink" viewBox="0 0 5067.07 2867.42"><defs><style>.cls-1,.cls-2{fill:none;}.cls-2{clip-rule:evenodd;}.cls-3{clip-path:url(#clip-path);}.cls-4{fill:#2957a4;}.cls-10,.cls-4,.cls-5,.cls-6,.cls-7,.cls-8,.cls-9{fill-rule:evenodd;}.cls-5{fill:#81d4f7;}.cls-6{fill:#f6afce;}.cls-7{fill:#c882b6;}.cls-8{fill:#fff;}.cls-9{fill:#009edf;}.cls-10{fill:#842f30;}.cls-11{clip-path:url(#clip-path-2);}.cls-12{clip-path:url(#clip-path-3);}</style><clipPath id="clip-path" transform="translate(1902.07 109.13)"><rect class="cls-1" width="3092" height="1600"/></clipPath><clipPath id="clip-path-2" transform="translate(1902.07 109.13)"><path class="cls-2" d="M-282.41,1159.29c-61.29,6-65.47,90.43-128.35,184.09C-454.95,1409.19-514.35,1459-569,1495.23c-123.62,81.81-291.23,99.89-404.8,39.79-58.07-41.61-86.3-68.94-109.61-90.83-61-57.34-122.1,0-105.45,62.9,4.43,16.71,16.57,49.63,35.12,90.58,59.47,131.27,111.47,224.51,213.91,292.8h0l0,0c-135.89,155-225.62,376-259.63,561-3.22,74.74,111.18,129,196.44,14.86C-660.6,2073.52-540.48,2318-470,2550.75c18.85,84.88,154.66,94.33,177,0,51.61-317.75-14.35-596.92-115.24-744.16,96.68-115.62,163.53-275.22,179.48-395.7C-212.12,1285.09-206.73,1151.9-282.41,1159.29ZM-660.19,1707.6c-.59.14-1.2.26-1.79.41C-661.39,1707.86-660.78,1707.74-660.19,1707.6ZM-811,1775.31c-2.06,1.38-4.14,2.75-6.19,4.16C-815.17,1778.06-813.09,1776.69-811,1775.31Zm112.17-56.44-.93.31Zm-10.5,3.78c-.92.34-1.86.66-2.77,1C-711.22,1723.31-710.28,1723-709.36,1722.65Zm-22,8.85c-5.72,2.48-11.42,5-17,7.75C-742.74,1736.53-737,1734-731.32,1731.5ZM-754,1742.07c-2.05,1-4.11,2-6.15,3.07C-758.15,1744.09-756.09,1743.1-754,1742.07Zm-9.36,4.78c-2.83,1.49-5.66,3-8.46,4.52C-769.06,1749.82-766.23,1748.34-763.4,1746.85Zm-13.87,7.59c-2.05,1.16-4.1,2.29-6.14,3.48C-781.37,1756.73-779.32,1755.6-777.27,1754.44ZM-802,1769.38c-1.36.87-2.73,1.71-4.09,2.6C-804.73,1771.09-803.36,1770.25-802,1769.38Zm-118.86,100.16c.68-.72,1.37-1.42,2.05-2.14C-919.49,1868.12-920.18,1868.82-920.86,1869.54Zm98.41-86.36c-1.92,1.36-3.86,2.7-5.77,4.08C-826.31,1785.88-824.37,1784.54-822.45,1783.18Zm-22.92,17.08c-1.47,1.15-3,2.28-4.42,3.45C-848.33,1802.54-846.84,1801.41-845.37,1800.26Zm-7.37,5.85c-2.55,2.07-5.1,4.13-7.63,6.23C-857.84,1810.24-855.29,1808.18-852.74,1806.11Zm-15,12.53c-1,.88-2,1.73-3,2.61C-869.79,1820.37-868.77,1819.52-867.75,1818.64Zm-20.76,18.65c-.91.85-1.84,1.69-2.75,2.55C-890.35,1839-889.42,1838.14-888.51,1837.29Zm34.67,99.43q6.92,3,14.09,5.93Q-846.92,1939.73-853.84,1936.72Zm-26.77-12.34c2.7,1.32,5.48,2.62,8.24,3.92C-875.13,1927-877.91,1925.7-880.61,1924.38Zm13.14,6.25c2.88,1.33,5.85,2.63,8.8,3.94C-861.62,1933.26-864.59,1932-867.47,1930.63Z"/></clipPath><clipPath id="clip-path-3" transform="translate(1902.07 109.13)"><path class="cls-2" d="M-734.74,1509a171.12,171.12,0,0,0,171.12-171.12,171.12,171.12,0,0,0-171.12-171.13,171.13,171.13,0,0,0-171.13,171.13A171.13,171.13,0,0,0-734.74,1509Z"/></clipPath><image id="image" width="720" height="487" xlink:href="FB_IMG_1594846938241.jpg"/></defs><title>conlogo</title><g class="cls-3"><path class="cls-4" d="M3165,1600H1681.92S1441.46,532,1772,0c152.56-245.55,1393,0,1393,0Z" transform="translate(1902.07 109.13)"/><path class="cls-5" d="M1422.51,376.45c-142.64,94.41-336,115.27-467.09,45.92-67-48-99.58-79.54-126.47-104.81-70.44-66.16-140.89,0-121.68,72.58,5.11,19.28,19.11,57.27,40.52,104.53,68.94,152.18,129.17,260.08,248.49,339l-1.67-1.11c115.22-131.46,259.21-221.83,427.64-224.31,64.18-.94,129.67,45.61,185.79,127.51,111.56-133.41,188.69-317.57,207.1-456.59,19.22-145.16,25.43-298.84-61.9-290.31-70.72,6.9-75.53,104.34-148.09,212.41C1554.16,277.17,1485.62,334.69,1422.51,376.45Z" transform="translate(1902.07 109.13)"/><path class="cls-6" d="M1608,735.73c116.42,169.89,192.53,492,133,858.67-25.74,108.84-182.45,97.94-204.21,0-81.34-268.58-220-550.67-615.07-97.41-98.38,131.68-230.39,69.09-226.66-17.14,39.54-215.09,144.38-472.45,303.26-651.54l-3.73,4.22c33.37,22.24,71.38,42.2,115.54,60.2,189.42,77.16,381.52-25.55,483-139.71Q1600.7,744.53,1608,735.73Z" transform="translate(1902.07 109.13)"/><path class="cls-5" d="M1231.31-2.61c109,0,197.46,88.4,197.46,197.45S1340.36,392.3,1231.31,392.3s-197.45-88.41-197.45-197.46S1122.26-2.61,1231.31-2.61Z" transform="translate(1902.07 109.13)"/><path class="cls-7" d="M994.61,832.53c33.37,22.24,71.38,42.2,115.54,60.2,189.42,77.16,381.52-25.55,483-139.71q7.55-8.49,14.89-17.29c-56.12-81.9-121.61-128.45-185.79-127.51C1253.82,610.7,1109.83,701.07,994.61,832.53Z" transform="translate(1902.07 109.13)"/><path class="cls-8" d="M1453.24,503.41c-6-7.51-19.69-31.43-46.52-46.24-70.3-38.78-144.55,61.88-98.69,134.55,23,36.46,119.16,141.07,172,141.1a114.1,114.1,0,0,0,21.07-2.7c51.48-11.67,118.14-138.87,131.22-180.12,26-81.91-71.35-160.5-129.53-105.19-22.22,21.13-29.39,47.73-33.31,56.52S1459.32,511,1453.24,503.41Z" transform="translate(1902.07 109.13)"/><path class="cls-9" d="M2523.31,1013.21l19.92,28.41c-12.49,20.49,25.56,34.4,38.51,20.88l16.89-16s22.2,21.35,28.27,21.25,14.18-6.12,14.18-6.12c3.79-2.92,8.91,1.65,10.06,9.07l-.15,27.81c-.1,19.51,5.79,30.81,25.19,20.28,9.09-4.93,10.72-16.13,10.72-16.13l-4-77.89c-1.18-16.9-6.47-25.29-15.5-33.15l-6.9-6.78c6.58-8.22,31.42-14.46,19.73-24.66l32.07-79.79-2.64-31c-1.59-12.12,25.59-18.27,25.1-37.21,0-14.68,14.25-21.82,21.05-28.39,5.87-5.7,21.14-17.44,27.4-31.29,8.81-19.49,6.39-44.83-5.88-47-9-1.64-36.05-7-42.88-8.73s-17.83-7-29.6-5.5-30,34.34-30,34.34a115,115,0,0,1-15.56-9.68c-8.92-6.45-9.11-35.29-9.11-35.29s-44.21-38.46-81.15-66.87c-3.83,14.4-11.47,24.95-12.89,31.21C2591.62,745.79,2577.39,913.64,2523.31,1013.21Z" transform="translate(1902.07 109.13)"/><path class="cls-9" d="M2444.26,471.85c-11.51-21.88-16.57-33.53-16.57-33.53l24.37-49c27.36-41.14-12.41-28.38-16.31-22.41-3.74,5.72-27.61,16.79-38.89,17.65s-27.52-12.91-27.52-12.91-17.83,3.42-27.51,1.52-15-19.92-15-19.92-12.9,2.66-44.58,9.11-42.79,28-45.45,35.95-2.27,6.26-12.71,18-3.22,44.87-3.22,44.87l38.35,39.41c6.83,8.59-36.73,65.59-45.75,58.12,0,0-15.64-14.64-26.09-20-20.9-18-47,1-47,1-15.34,12.27,18.58,31.84,33.2,45.72,0,0,57.9,48.68,62.3,65.41s34.54,40.15,56.34,18c11.3-5.37,17.31,3.35,26,5l15.69,20.41a283.33,283.33,0,0,1,19.38-33.07c-25.15-36.85-29.12-44-38.88-80.35-15.31-57.09,27.15-62,65.62-36.48C2380.31,489.46,2417.33,471.72,2444.26,471.85Z" transform="translate(1902.07 109.13)"/><path class="cls-8" d="M1907.78,960.05q-8.91,0-13.66-5.2t-4.75-15.05V857.64q0-9.89,4.75-15.11t13.66-5.24q9,0,13.76,5.24t4.75,15.11v27.42l24.9-33.43a46.15,46.15,0,0,1,10.75-10.85,22.41,22.41,0,0,1,12.69-3.49c4.78,0,8.47,1.1,11,3.3s3.81,5.26,3.81,9.2a18.46,18.46,0,0,1-1.2,6.72,23.4,23.4,0,0,1-3.74,6.27l-18.32,22.47q-8.13,10.08-11.33,12.31,2.91,2.22,12.11,14l17.44,22.19a23.93,23.93,0,0,1,3.75,6.3,19.86,19.86,0,0,1,1,6.68,11.9,11.9,0,0,1-4.49,9.69q-4.52,3.68-11.89,3.68a24.62,24.62,0,0,1-8.81-1.42,19.24,19.24,0,0,1-6.59-4.2,52.65,52.65,0,0,1-6.3-7.65l-24.8-35.37V939.8q0,9.88-4.75,15.05t-13.76,5.2Zm171.25-.58q-8.61,0-12.4-3.19t-3.77-9.5V945a21.13,21.13,0,0,1-5,7.3,28,28,0,0,1-9.5,5.88,37.13,37.13,0,0,1-13.66,2.32,41.44,41.44,0,0,1-18-3.78,29.46,29.46,0,0,1-12.5-11,31,31,0,0,1-4.55-16.95q0-10.08,5.59-16.83a32.44,32.44,0,0,1,14.66-9.91,59.9,59.9,0,0,1,20-3.2A42.25,42.25,0,0,1,2050,900a30.1,30.1,0,0,1,7.17,2.61,12.49,12.49,0,0,1,3.78,2.88v-5.33a7.4,7.4,0,0,0-2-4.94,14.47,14.47,0,0,0-5.71-3.78,22.55,22.55,0,0,0-8.34-1.45,66.6,66.6,0,0,0-18,2.61q-3,.78-5,1.17a25.71,25.71,0,0,1-4.65.38q-6.39,0-9.88-3.07t-3.49-9.23c0-3.68,1.13-6.59,3.4-8.69a24.77,24.77,0,0,1,9.29-5.07,79.09,79.09,0,0,1,13.86-2.91,135.76,135.76,0,0,1,18-1.16,66.13,66.13,0,0,1,23.16,3.88,38.71,38.71,0,0,1,16.63,11.17,25.93,25.93,0,0,1,6.14,17.22V959.2a37.45,37.45,0,0,1-4.65.27Zm-45.82-31.68c0,3.1,1.07,5.36,3.19,6.78a15,15,0,0,0,8.43,2.14,17.49,17.49,0,0,0,9.69-2.52,26.41,26.41,0,0,0,6.4-5.72v-5.71q-1.26-1.37-5.33-2.72a27.51,27.51,0,0,0-8.72-1.35q-13.66,0-13.66,9.1Zm104.11,31.68q-9.68,0-15.69-4.84t-7.56-14.24q-.87-5.52-3.68-30.33t-2.81-27.32q0-8.43,4.75-13.37t12.69-4.94q8.82,0,13.37,5.52t4.55,15.7v43.4l5.53-32.45c1.16-6.85,3-11.63,5.39-14.34a13.92,13.92,0,0,1,19.67,0q3.63,4.07,5.36,14.34l5.52,31.68V885.65q0-10.17,4.62-15.7t13.4-5.52c5.3,0,9.53,1.65,12.66,4.94s4.69,7.75,4.69,13.37q0,4-6.5,57.65c-.77,6.26-3.06,11-6.91,14.24s-9,4.84-15.37,4.84c-7.56,0-13.21-1.48-17-4.45s-6.17-7.82-7.13-14.53l-3.11-21.13-3.29,21.13a28.75,28.75,0,0,1-3.68,11.07,15,15,0,0,1-7.3,6,33.07,33.07,0,0,1-12.18,1.9Zm140.84,1.07a132.89,132.89,0,0,1-23.64-2q-10.93-2-17.92-6.4t-7-11.36q0-6.49,4.17-10t11.05-3.49c3.22,0,7.46.93,12.69,2.81a105.87,105.87,0,0,0,10.62,3.32,39.07,39.07,0,0,0,9.63,1.23,27.4,27.4,0,0,0,8.49-1c1.84-.64,2.75-1.74,2.75-3.29a2.75,2.75,0,0,0-1.85-2.39,23.87,23.87,0,0,0-5.42-1.68q-3.59-.76-10.76-1.94-19.56-3.2-29.29-10.82T2232,892.33c0-6.72,2.23-12.21,6.65-16.44a38.17,38.17,0,0,1,17.09-9.1,88.24,88.24,0,0,1,22.57-2.75q18.31,0,30.58,3.88t12.24,14a10.76,10.76,0,0,1-4.2,9.11,17.24,17.24,0,0,1-10.72,3.19,47.43,47.43,0,0,1-12.69-2,54.16,54.16,0,0,0-14.73-2.42,33.73,33.73,0,0,0-8,.71c-1.91.48-2.88,1.48-2.88,3,0,1.29,1.46,2.36,4.36,3.23a113.87,113.87,0,0,0,13.37,2.78,117.9,117.9,0,0,1,22.09,5.32c5.75,2.13,10.21,5.11,13.34,8.92s4.69,8.81,4.69,15q0,10.67-6.43,17.83t-17.25,10.59a78.31,78.31,0,0,1-23.9,3.46Zm138.1-1.07q-8.61,0-12.4-3.19t-3.78-9.5V945a21,21,0,0,1-5,7.3,27.85,27.85,0,0,1-9.49,5.88,37.34,37.34,0,0,1-13.66,2.32,41.41,41.41,0,0,1-18-3.78,29.4,29.4,0,0,1-12.5-11,30.89,30.89,0,0,1-4.56-16.95c0-6.72,1.88-12.34,5.59-16.83a32.44,32.44,0,0,1,14.66-9.91,60,60,0,0,1,20-3.2,42.34,42.34,0,0,1,10.18,1.1,30.1,30.1,0,0,1,7.17,2.61,12.56,12.56,0,0,1,3.77,2.88v-5.33a7.38,7.38,0,0,0-2-4.94,14.52,14.52,0,0,0-5.72-3.78,22.49,22.49,0,0,0-8.33-1.45,66.6,66.6,0,0,0-18,2.61q-3,.78-5,1.17a25.71,25.71,0,0,1-4.65.38q-6.39,0-9.88-3.07t-3.49-9.23a11.3,11.3,0,0,1,3.39-8.69,24.82,24.82,0,0,1,9.3-5.07,79.09,79.09,0,0,1,13.86-2.91,135.65,135.65,0,0,1,18-1.16,66.36,66.36,0,0,1,23.16,3.88,38.8,38.8,0,0,1,16.63,11.17,25.92,25.92,0,0,1,6.13,17.22V959.2a37.34,37.34,0,0,1-4.65.27Zm-45.83-31.68q0,4.65,3.2,6.78a15,15,0,0,0,8.43,2.14,17.49,17.49,0,0,0,9.69-2.52,26.17,26.17,0,0,0,6.39-5.72v-5.71q-1.26-1.37-5.32-2.72a27.57,27.57,0,0,0-8.73-1.35q-13.65,0-13.66,9.1Zm98,77c-6.46,0-11.24-1-14.37-3.1s-4.71-5.23-4.71-9.49,1.48-7.24,4.42-9.31,7.72-3.55,14.37-4.45a18.91,18.91,0,0,0,12.37-6.56,40.12,40.12,0,0,0,7.2-13.21q-8.61-.18-14.08-4.26c-3.64-2.71-6.39-6.85-8.2-12.4l-16.86-52.51a24.72,24.72,0,0,1-1.26-7.66,17.86,17.86,0,0,1,2.23-9,15.8,15.8,0,0,1,6.17-6.1,17.88,17.88,0,0,1,8.85-2.16,22.2,22.2,0,0,1,10.27,2.06,15.84,15.84,0,0,1,6.36,6.17,46,46,0,0,1,4.2,10.76l11.72,41.56,11.53-41.66a44,44,0,0,1,4.14-10.37,16.72,16.72,0,0,1,6.33-6.3,20.9,20.9,0,0,1,10.27-2.22c5,0,9.07,1.55,12.08,4.68s4.48,7.23,4.48,12.27a26.41,26.41,0,0,1-1.16,7.85l-21,69.27A100.16,100.16,0,0,1,2513,983.35,44.82,44.82,0,0,1,2495.9,999Q2485.1,1004.8,2468.41,1004.82Z" transform="translate(1902.07 109.13)"/><path class="cls-8" d="M1905.58,820c-5.23,0-9.36-1.45-12.44-4.37s-4.63-6.91-4.63-12a25.33,25.33,0,0,1,.89-6.55l23.23-83.8q2.58-9.13,8-13.6t14-4.47h19.46q8.64,0,14.07,4.47c3.61,3,6.25,7.51,8,13.6l23.24,83.8a25.77,25.77,0,0,1,.89,6.55c0,5.1-1.52,9.1-4.6,12s-7.25,4.37-12.48,4.37q-9.12,0-13.73-4.47t-6.92-14.19l-1.88-8h-32.57l-1.89,8c-1.52,6.48-3.8,11.22-6.88,14.19s-7.68,4.47-13.77,4.47Zm227.63-153.89h13.19a11.1,11.1,0,0,1,11.07,11.07v10.51a11.11,11.11,0,0,1-11.07,11.08h-13.19a11.12,11.12,0,0,1-11.08-11.08V677.14a11.11,11.11,0,0,1,11.08-11.07Zm.91,44.23h11.37a12,12,0,0,1,12,12v83.81a12,12,0,0,1-12,12h-11.37a12,12,0,0,1-12-12V722.28a12,12,0,0,1,12-12Zm-54.68-44.23h11.37a12,12,0,0,1,12,12v128a12,12,0,0,1-12,12h-11.37a12,12,0,0,1-12-12v-128a12,12,0,0,1,12-12Zm-54.68,0h11.37a12,12,0,0,1,12,12v128a12,12,0,0,1-12,12h-11.37a12,12,0,0,1-12-12v-128a12,12,0,0,1,12-12Zm-70.13,100.68-9.13-39.62-1.1-5.36-1.09,5.36-9.13,39.62Zm301.1,52.32q-9.24,0-14.1-5.36t-4.87-15.49V767.74c0-6.42-.86-11.25-2.58-14.46a8.76,8.76,0,0,0-8.34-4.8,10,10,0,0,0-8.77,4.66c-2.08,3.11-3.14,7.25-3.14,12.41v32.67q0,10.13-4.87,15.49T2195,819.07q-9.24,0-14-5.36t-4.83-15.49v-55.6q0-10.12,4.83-15.49t14-5.36q7.25,0,11.81,3.28a16.65,16.65,0,0,1,6.26,9.73,32.41,32.41,0,0,1,11.18-9.73,32,32,0,0,1,15.32-3.58q16.39,0,25.72,9.47t9.33,31.34v35.94q0,10.13-4.86,15.49T2255.73,819.07Z" transform="translate(1902.07 109.13)"/><path class="cls-10" d="M1924.93,623.46a8.07,8.07,0,0,1-1.27,4.43,8.53,8.53,0,0,1-3.72,3.08,14,14,0,0,1-5.81,1.1,13.12,13.12,0,0,1-6.65-1.51,8.94,8.94,0,0,1-3-2.92,6.66,6.66,0,0,1-1.16-3.55,2.4,2.4,0,0,1,.7-1.72,2.34,2.34,0,0,1,1.77-.71,2,2,0,0,1,1.47.56,4.29,4.29,0,0,1,1,1.65,10.92,10.92,0,0,0,1.12,2.17,4.66,4.66,0,0,0,1.7,1.44,7.5,7.5,0,0,0,6.86-.58,3.43,3.43,0,0,0,1.53-2.85,3,3,0,0,0-.82-2.19,5.33,5.33,0,0,0-2.14-1.3c-.87-.3-2-.61-3.5-.95a25.15,25.15,0,0,1-4.9-1.6,8,8,0,0,1-3.14-2.51,6.53,6.53,0,0,1-1.16-4,6.78,6.78,0,0,1,1.23-4,7.76,7.76,0,0,1,3.54-2.68,14.65,14.65,0,0,1,5.46-.93,13.37,13.37,0,0,1,4.33.62,9.27,9.27,0,0,1,3,1.65,7.19,7.19,0,0,1,1.76,2.16,5.14,5.14,0,0,1,.55,2.21,2.66,2.66,0,0,1-.69,1.78,2.24,2.24,0,0,1-1.74.78,2,2,0,0,1-1.44-.47,6.09,6.09,0,0,1-1.06-1.55,7.06,7.06,0,0,0-1.79-2.41,5.23,5.23,0,0,0-3.34-.86,5.74,5.74,0,0,0-3.44.94,2.71,2.71,0,0,0-1.31,2.25,2.29,2.29,0,0,0,.44,1.42,4,4,0,0,0,1.23,1,9,9,0,0,0,1.58.67c.53.16,1.41.39,2.63.7a40,40,0,0,1,4.17,1.19,12.51,12.51,0,0,1,3.17,1.58,6.29,6.29,0,0,1,2,2.34,7.54,7.54,0,0,1,.74,3.49Zm18.47-.43h-9.92a6.71,6.71,0,0,0,.7,3,4.79,4.79,0,0,0,1.8,2,4.73,4.73,0,0,0,2.48.67,5.85,5.85,0,0,0,1.66-.22,5.38,5.38,0,0,0,1.45-.66,10.27,10.27,0,0,0,1.3-1c.4-.35.91-.81,1.55-1.41a1.65,1.65,0,0,1,1.11-.34,1.81,1.81,0,0,1,1.26.44,1.5,1.5,0,0,1,.48,1.2,3.33,3.33,0,0,1-.53,1.6,6.46,6.46,0,0,1-1.63,1.76,9.19,9.19,0,0,1-2.73,1.4,11.74,11.74,0,0,1-3.77.55q-4.89,0-7.59-2.78a10.35,10.35,0,0,1-2.71-7.55,12.49,12.49,0,0,1,.67-4.17,9.21,9.21,0,0,1,1.94-3.3,8.59,8.59,0,0,1,3.16-2.1,11.27,11.27,0,0,1,4.15-.74,9.82,9.82,0,0,1,5.1,1.26,8.17,8.17,0,0,1,3.18,3.24,8.51,8.51,0,0,1,1.06,4.05,2.55,2.55,0,0,1-1.09,2.48,6.79,6.79,0,0,1-3.08.57Zm-9.92-2.89h9.19a6.12,6.12,0,0,0-1.4-3.88,4.2,4.2,0,0,0-3.2-1.29,4.08,4.08,0,0,0-3.11,1.3,6.51,6.51,0,0,0-1.48,3.87Zm18.37,8.86V607a3.43,3.43,0,0,1,.68-2.3,2.27,2.27,0,0,1,1.82-.77,2.37,2.37,0,0,1,1.85.77,3.3,3.3,0,0,1,.7,2.3v22a3.3,3.3,0,0,1-.71,2.3,2.41,2.41,0,0,1-1.84.77,2.27,2.27,0,0,1-1.8-.79,3.36,3.36,0,0,1-.7-2.28Zm10.3,0V607a3.43,3.43,0,0,1,.68-2.3,2.28,2.28,0,0,1,1.82-.77,2.37,2.37,0,0,1,1.85.77,3.3,3.3,0,0,1,.71,2.3v22a3.25,3.25,0,0,1-.72,2.3,2.41,2.41,0,0,1-1.84.77,2.27,2.27,0,0,1-1.8-.79,3.36,3.36,0,0,1-.7-2.28Zm29.27-7.22a11.93,11.93,0,0,1-.7,4.17,9.4,9.4,0,0,1-2,3.29,9.14,9.14,0,0,1-3.19,2.1,11.28,11.28,0,0,1-4.18.73,10.83,10.83,0,0,1-4.14-.74,9.15,9.15,0,0,1-5.23-5.39,13,13,0,0,1,0-8.38,9.13,9.13,0,0,1,2-3.27,8.83,8.83,0,0,1,3.19-2.08,12.06,12.06,0,0,1,8.32,0,9,9,0,0,1,5.24,5.39,11.9,11.9,0,0,1,.7,4.18Zm-5.09,0A7.58,7.58,0,0,0,1985,617a4.42,4.42,0,0,0-3.66-1.73,4.53,4.53,0,0,0-2.61.77,4.83,4.83,0,0,0-1.75,2.28,10.34,10.34,0,0,0,0,7,5.12,5.12,0,0,0,1.72,2.28,4.55,4.55,0,0,0,2.65.78,4.4,4.4,0,0,0,3.66-1.74,7.54,7.54,0,0,0,1.37-4.79Zm26.33-1.79h-1.93v8.73a3.62,3.62,0,0,1-.76,2.54,2.6,2.6,0,0,1-2,.81,2.54,2.54,0,0,1-2-.85,3.78,3.78,0,0,1-.72-2.5V607.78a2.9,2.9,0,0,1,3.37-3.38h9a26.19,26.19,0,0,1,3.17.16,8.15,8.15,0,0,1,2.38.64,7,7,0,0,1,2.27,1.54,6.88,6.88,0,0,1,1.49,2.33,7.8,7.8,0,0,1,.51,2.82,6.8,6.8,0,0,1-1.72,4.87,9.8,9.8,0,0,1-5.21,2.57,10.13,10.13,0,0,1,2.81,2.3,23.24,23.24,0,0,1,2.38,3.24,23.86,23.86,0,0,1,1.64,3.1,6.31,6.31,0,0,1,.58,1.9,1.92,1.92,0,0,1-.34,1.06,2.32,2.32,0,0,1-.94.84,3,3,0,0,1-1.37.3,2.68,2.68,0,0,1-1.56-.43,4.27,4.27,0,0,1-1.09-1.11c-.3-.44-.71-1.1-1.23-2l-2.21-3.67a20.63,20.63,0,0,0-2.12-3.08,5.29,5.29,0,0,0-1.91-1.45,6.52,6.52,0,0,0-2.43-.38Zm3.16-11.45h-5.09V616h4.93a13.88,13.88,0,0,0,3.35-.34,4,4,0,0,0,2.07-1.17,3.4,3.4,0,0,0,.71-2.28,3.46,3.46,0,0,0-2.17-3.29,11.5,11.5,0,0,0-3.8-.41ZM2045.44,623h-9.91a6.71,6.71,0,0,0,.69,3,4.79,4.79,0,0,0,1.8,2,4.73,4.73,0,0,0,2.48.67,5.75,5.75,0,0,0,1.66-.22,5.3,5.3,0,0,0,1.46-.66,11.94,11.94,0,0,0,1.3-1c.39-.35.91-.81,1.54-1.41a1.67,1.67,0,0,1,1.11-.34,1.85,1.85,0,0,1,1.27.44,1.53,1.53,0,0,1,.48,1.2,3.36,3.36,0,0,1-.54,1.6,6.31,6.31,0,0,1-1.63,1.76,9.25,9.25,0,0,1-2.72,1.4,11.84,11.84,0,0,1-3.78.55,10.13,10.13,0,0,1-7.59-2.78,10.39,10.39,0,0,1-2.7-7.55,12.75,12.75,0,0,1,.66-4.17,9.38,9.38,0,0,1,2-3.3,8.47,8.47,0,0,1,3.15-2.1,11.32,11.32,0,0,1,4.16-.74,9.78,9.78,0,0,1,5.09,1.26,8.2,8.2,0,0,1,3.19,3.24,8.62,8.62,0,0,1,1.06,4.05,2.54,2.54,0,0,1-1.1,2.48,6.76,6.76,0,0,1-3.08.57Zm-9.91-2.89h9.18a6.12,6.12,0,0,0-1.4-3.88,4.18,4.18,0,0,0-3.2-1.29,4.1,4.1,0,0,0-3.11,1.3,6.5,6.5,0,0,0-1.47,3.87ZM2072,615.2v14.71a15.3,15.3,0,0,1-.54,4.34,6.93,6.93,0,0,1-1.72,3,7.27,7.27,0,0,1-3.11,1.76,16.69,16.69,0,0,1-4.78.58,14.1,14.1,0,0,1-4.68-.73A8.25,8.25,0,0,1,2054,637a3.43,3.43,0,0,1-1.11-2.38,2,2,0,0,1,.63-1.51,2.19,2.19,0,0,1,1.53-.59,2.49,2.49,0,0,1,2,1l.84,1a5.21,5.21,0,0,0,1,.87,3.92,3.92,0,0,0,1.28.54,7.21,7.21,0,0,0,1.7.18,7,7,0,0,0,3.05-.55,3.05,3.05,0,0,0,1.52-1.53,6.22,6.22,0,0,0,.51-2.11c.05-.74.09-1.94.11-3.6a8.2,8.2,0,0,1-2.7,2.48,7.34,7.34,0,0,1-3.64.86,7.67,7.67,0,0,1-4.45-1.3,8.37,8.37,0,0,1-2.92-3.64,13.41,13.41,0,0,1-1-5.4,13,13,0,0,1,.62-4.13,8.6,8.6,0,0,1,1.78-3.09,7.4,7.4,0,0,1,2.65-1.91,8.27,8.27,0,0,1,3.3-.64,8,8,0,0,1,3.73.83,8.94,8.94,0,0,1,2.93,2.6v-.69a3,3,0,0,1,.65-2,2.13,2.13,0,0,1,1.68-.73,2,2,0,0,1,1.95,1,6.35,6.35,0,0,1,.48,2.77Zm-14.67,6.42a7.06,7.06,0,0,0,1.34,4.66,4.35,4.35,0,0,0,3.48,1.57,4.56,4.56,0,0,0,2.38-.67,5,5,0,0,0,1.82-2,7.2,7.2,0,0,0,.71-3.32,7.59,7.59,0,0,0-1.37-4.82,4.33,4.33,0,0,0-3.58-1.73,4.19,4.19,0,0,0-3.48,1.66,7.4,7.4,0,0,0-1.3,4.69Zm24.86-7.27V629a3.24,3.24,0,0,1-.73,2.29,2.38,2.38,0,0,1-1.83.78,2.27,2.27,0,0,1-1.8-.79,3.36,3.36,0,0,1-.7-2.28V614.5a3.23,3.23,0,0,1,.7-2.27,2.31,2.31,0,0,1,1.8-.76,2.4,2.4,0,0,1,1.83.76,3,3,0,0,1,.73,2.12Zm-2.51-5.23a2.67,2.67,0,0,1-1.8-.65,2.3,2.3,0,0,1-.75-1.84,2.24,2.24,0,0,1,.77-1.76,2.58,2.58,0,0,1,1.78-.7,2.67,2.67,0,0,1,1.75.63,2.28,2.28,0,0,1,.76,1.83,2.31,2.31,0,0,1-.75,1.83,2.58,2.58,0,0,1-1.76.66Zm26.72,12.66a12.16,12.16,0,0,1-.7,4.17,9.4,9.4,0,0,1-2,3.29,9.14,9.14,0,0,1-3.19,2.1,11.28,11.28,0,0,1-4.18.73,10.83,10.83,0,0,1-4.14-.74,9.15,9.15,0,0,1-5.23-5.39,12.8,12.8,0,0,1,0-8.38,9.13,9.13,0,0,1,2-3.27,8.83,8.83,0,0,1,3.19-2.08,11.25,11.25,0,0,1,4.14-.74,11.39,11.39,0,0,1,4.18.74,9.32,9.32,0,0,1,3.21,2.12,9.17,9.17,0,0,1,2,3.27,12.14,12.14,0,0,1,.7,4.18Zm-5.09,0A7.58,7.58,0,0,0,2100,617a4.43,4.43,0,0,0-3.66-1.73,4.59,4.59,0,0,0-2.62.77,4.88,4.88,0,0,0-1.74,2.28,10.34,10.34,0,0,0,0,7,5.12,5.12,0,0,0,1.72,2.28,4.55,4.55,0,0,0,2.65.78,4.41,4.41,0,0,0,3.66-1.74,7.54,7.54,0,0,0,1.37-4.79Zm13.67-7.51v.62a8.87,8.87,0,0,1,2.92-2.59,7.7,7.7,0,0,1,3.65-.83,7.23,7.23,0,0,1,3.59.88,5.5,5.5,0,0,1,2.36,2.46,6,6,0,0,1,.65,2,22.5,22.5,0,0,1,.14,2.74V629a3.33,3.33,0,0,1-.69,2.29,2.32,2.32,0,0,1-1.81.78,2.37,2.37,0,0,1-1.85-.79,3.36,3.36,0,0,1-.7-2.28v-8.46a8.52,8.52,0,0,0-.7-3.83,2.83,2.83,0,0,0-2.77-1.32,4.1,4.1,0,0,0-2.47.8,4.54,4.54,0,0,0-1.63,2.23,15.6,15.6,0,0,0-.38,4.23V629a3.3,3.3,0,0,1-.71,2.3,2.41,2.41,0,0,1-1.84.77,2.29,2.29,0,0,1-1.8-.79,3.36,3.36,0,0,1-.7-2.28V614.35a3.18,3.18,0,0,1,.63-2.16,2.16,2.16,0,0,1,1.72-.72,2.32,2.32,0,0,1,1.2.32,2.19,2.19,0,0,1,.86.94,3.31,3.31,0,0,1,.33,1.54Zm31.17,15a15.65,15.65,0,0,1-3.55,2.13,9.89,9.89,0,0,1-3.85.71,7.35,7.35,0,0,1-3.43-.77,5.58,5.58,0,0,1-2.27-2.08,5.35,5.35,0,0,1-.8-2.86,5.08,5.08,0,0,1,1.32-3.54,6.57,6.57,0,0,1,3.63-2c.31-.08,1.11-.24,2.38-.5s2.37-.5,3.28-.72,1.89-.47,3-.78a5.29,5.29,0,0,0-.81-2.94c-.48-.63-1.46-.94-3-.94a6.1,6.1,0,0,0-2.9.54,4.6,4.6,0,0,0-1.68,1.61,16.66,16.66,0,0,1-1,1.42,1.61,1.61,0,0,1-1.23.34,2.14,2.14,0,0,1-1.48-.55,1.79,1.79,0,0,1-.62-1.4,4.35,4.35,0,0,1,.94-2.6,6.89,6.89,0,0,1,3-2.08,13.37,13.37,0,0,1,5-.82,14,14,0,0,1,5.25.8,4.87,4.87,0,0,1,2.7,2.49,11,11,0,0,1,.79,4.53c0,1.19,0,2.2,0,3s0,1.75,0,2.77a10.43,10.43,0,0,0,.47,3,8.81,8.81,0,0,1,.47,2,1.85,1.85,0,0,1-.73,1.41,2.44,2.44,0,0,1-1.66.64,2.26,2.26,0,0,1-1.54-.72,11,11,0,0,1-1.62-2.12Zm-.33-7.34a25.21,25.21,0,0,1-3.24.86c-1.41.3-2.39.53-2.94.67a4.12,4.12,0,0,0-1.56.84,2.15,2.15,0,0,0-.74,1.74,2.55,2.55,0,0,0,.88,2,3.22,3.22,0,0,0,2.28.81,5.93,5.93,0,0,0,2.77-.66,4.43,4.43,0,0,0,1.86-1.71,7.72,7.72,0,0,0,.69-3.79v-.72ZM2156,629V607a3.43,3.43,0,0,1,.67-2.3,2.29,2.29,0,0,1,1.83-.77,2.37,2.37,0,0,1,1.85.77,3.3,3.3,0,0,1,.7,2.3v22a3.3,3.3,0,0,1-.71,2.3,2.41,2.41,0,0,1-1.84.77,2.3,2.3,0,0,1-1.81-.79A3.41,3.41,0,0,1,2156,629Z" transform="translate(1902.07 109.13)"/><path class="cls-10" d="M1902.91,1041.24h-4.29v6.54a3,3,0,0,1-.66,2.12,2.15,2.15,0,0,1-1.67.73,2.18,2.18,0,0,1-1.71-.72,3,3,0,0,1-.64-2.1V1030a2.92,2.92,0,0,1,.71-2.2,3.22,3.22,0,0,1,2.25-.66h6a15.51,15.51,0,0,1,4.1.41,6.22,6.22,0,0,1,2.45,1.3,6,6,0,0,1,1.57,2.24,7.83,7.83,0,0,1,.54,3,6.6,6.6,0,0,1-2.18,5.36q-2.17,1.82-6.48,1.82Zm336.22,7a13.54,13.54,0,0,1-3,1.82,8.51,8.51,0,0,1-3.27.6,6.18,6.18,0,0,1-2.91-.66,4.73,4.73,0,0,1-1.93-1.77,4.58,4.58,0,0,1-.68-2.42,4.32,4.32,0,0,1,1.12-3,5.62,5.62,0,0,1,3.08-1.67c.27-.07.95-.21,2-.43s2-.42,2.78-.61,1.61-.4,2.52-.67a4.48,4.48,0,0,0-.69-2.49,3.07,3.07,0,0,0-2.51-.8,5.16,5.16,0,0,0-2.47.46,3.94,3.94,0,0,0-1.42,1.37c-.39.61-.67,1-.83,1.21a1.42,1.42,0,0,1-1,.29,1.84,1.84,0,0,1-1.26-.47,1.52,1.52,0,0,1-.52-1.19,3.6,3.6,0,0,1,.8-2.21,5.8,5.8,0,0,1,2.5-1.77,11.42,11.42,0,0,1,4.25-.69,12.13,12.13,0,0,1,4.46.67,4.13,4.13,0,0,1,2.29,2.12,9.22,9.22,0,0,1,.68,3.85c0,1,0,1.87,0,2.57s0,1.49,0,2.35a8.56,8.56,0,0,0,.41,2.53,7.47,7.47,0,0,1,.39,1.69,1.59,1.59,0,0,1-.61,1.21,2.12,2.12,0,0,1-1.42.54,1.88,1.88,0,0,1-1.31-.62,9.27,9.27,0,0,1-1.37-1.8Zm-.28-6.23a20.83,20.83,0,0,1-2.75.73c-1.2.26-2,.45-2.5.57a3.42,3.42,0,0,0-1.32.71,1.83,1.83,0,0,0-.63,1.48,2.15,2.15,0,0,0,.74,1.66,2.72,2.72,0,0,0,1.94.69,5.06,5.06,0,0,0,2.35-.56,3.76,3.76,0,0,0,1.59-1.45,6.69,6.69,0,0,0,.58-3.22V1042Zm28.66,1h-8.42a5.58,5.58,0,0,0,.6,2.58,3.93,3.93,0,0,0,3.63,2.26,5.23,5.23,0,0,0,1.41-.18,4.47,4.47,0,0,0,1.24-.57,9.31,9.31,0,0,0,1.1-.83c.34-.29.77-.69,1.31-1.2a1.39,1.39,0,0,1,.94-.28,1.6,1.6,0,0,1,1.08.36,1.3,1.3,0,0,1,.41,1,2.88,2.88,0,0,1-.46,1.36A5.57,5.57,0,0,1,2269,1049a7.88,7.88,0,0,1-2.32,1.19,10.12,10.12,0,0,1-3.2.47,8.56,8.56,0,0,1-6.45-2.37,8.8,8.8,0,0,1-2.3-6.41,10.64,10.64,0,0,1,.57-3.54,7.75,7.75,0,0,1,1.65-2.8,7.39,7.39,0,0,1,2.68-1.79,9.73,9.73,0,0,1,3.53-.62,8.37,8.37,0,0,1,4.33,1.07,7,7,0,0,1,2.7,2.75,7.21,7.21,0,0,1,.9,3.44,2.17,2.17,0,0,1-.93,2.11,5.94,5.94,0,0,1-2.62.48Zm-8.42-2.46h7.81a5.27,5.27,0,0,0-1.19-3.3,3.61,3.61,0,0,0-2.72-1.09,3.44,3.44,0,0,0-2.64,1.11,5.54,5.54,0,0,0-1.26,3.28Zm28-4.92V1048a2.77,2.77,0,0,1-.62,2,2,2,0,0,1-1.55.66,1.93,1.93,0,0,1-1.53-.68,2.82,2.82,0,0,1-.6-1.93V1035.7a2.73,2.73,0,0,1,.6-1.92,2,2,0,0,1,1.53-.65,2,2,0,0,1,1.55.65,2.5,2.5,0,0,1,.62,1.79Zm-2.13-4.44a2.23,2.23,0,0,1-1.53-.55,2.12,2.12,0,0,1,0-3,2.2,2.2,0,0,1,1.52-.6,2.23,2.23,0,0,1,1.48.54,1.9,1.9,0,0,1,.65,1.55,2,2,0,0,1-.63,1.55,2.2,2.2,0,0,1-1.5.56Zm10.48,4.38v.52a7.65,7.65,0,0,1,2.48-2.2,6.62,6.62,0,0,1,3.1-.7,6.26,6.26,0,0,1,3.05.74,4.67,4.67,0,0,1,2,2.1,4.78,4.78,0,0,1,.55,1.7,16.61,16.61,0,0,1,.13,2.33v8a2.86,2.86,0,0,1-.59,2,2,2,0,0,1-1.54.66,2,2,0,0,1-1.57-.68,2.82,2.82,0,0,1-.59-1.93v-7.18a7.12,7.12,0,0,0-.6-3.26,2.4,2.4,0,0,0-2.35-1.12,3.47,3.47,0,0,0-2.1.68A3.93,3.93,0,0,0,2296,1039a13,13,0,0,0-.32,3.59v5.4a2.78,2.78,0,0,1-.61,2,2,2,0,0,1-1.56.66,2,2,0,0,1-1.53-.68,2.82,2.82,0,0,1-.6-1.93v-12.45a2.68,2.68,0,0,1,.54-1.83,1.86,1.86,0,0,1,1.46-.61,1.94,1.94,0,0,1,1,.27,1.89,1.89,0,0,1,.73.8,2.79,2.79,0,0,1,.28,1.31Zm31,9.8a3.74,3.74,0,0,1-.48,1.72,5.93,5.93,0,0,1-1.47,1.73,7.39,7.39,0,0,1-2.48,1.33,10.44,10.44,0,0,1-3.38.51,8.22,8.22,0,0,1-6.22-2.33,8.57,8.57,0,0,1-2.25-6.23,10.27,10.27,0,0,1,1-4.68,7.29,7.29,0,0,1,3-3.15,10.07,10.07,0,0,1,7.7-.62,8.11,8.11,0,0,1,2.36,1.26,6.08,6.08,0,0,1,1.48,1.65,3.23,3.23,0,0,1,.52,1.64,1.72,1.72,0,0,1-.58,1.31,2,2,0,0,1-1.4.53,1.4,1.4,0,0,1-.88-.27,4.6,4.6,0,0,1-.8-.89,6.64,6.64,0,0,0-1.65-1.8,4,4,0,0,0-5.25.9,6.39,6.39,0,0,0-1.17,4.06,7.86,7.86,0,0,0,.3,2.23,4.78,4.78,0,0,0,.87,1.73A3.63,3.63,0,0,0,2317,1047a4.08,4.08,0,0,0,1.76.37,4,4,0,0,0,2.22-.6,5.22,5.22,0,0,0,1.63-1.82,3.94,3.94,0,0,1,.85-1.14,1.63,1.63,0,0,1,1.12-.41,1.69,1.69,0,0,1,1.31.6,2,2,0,0,1,.52,1.28Zm2.94,2.71v-18.67a2.91,2.91,0,0,1,.58-1.95,2,2,0,0,1,1.55-.66,2,2,0,0,1,1.57.66,2.78,2.78,0,0,1,.6,1.95V1048a2.78,2.78,0,0,1-.61,2,2,2,0,0,1-1.56.66,2,2,0,0,1-1.54-.68,2.87,2.87,0,0,1-.59-1.93Zm19.92.18v-.55a9.73,9.73,0,0,1-1.63,1.64,5.78,5.78,0,0,1-1.85,1,7.42,7.42,0,0,1-2.3.33,5.93,5.93,0,0,1-2.8-.65,4.78,4.78,0,0,1-1.92-1.78,7.94,7.94,0,0,1-.8-3.94v-8.53a2.83,2.83,0,0,1,.58-1.93,2,2,0,0,1,1.55-.64,2.06,2.06,0,0,1,1.57.65,2.73,2.73,0,0,1,.6,1.92v6.89a10.45,10.45,0,0,0,.25,2.51,3.07,3.07,0,0,0,.9,1.6,2.62,2.62,0,0,0,1.78.57,3.6,3.6,0,0,0,2.05-.64,3.77,3.77,0,0,0,1.4-1.69,13.35,13.35,0,0,0,.36-4v-5.23a2.73,2.73,0,0,1,.6-1.92,2.06,2.06,0,0,1,1.57-.65,2,2,0,0,1,1.54.64,2.79,2.79,0,0,1,.59,1.93v12.47a2.71,2.71,0,0,1-.56,1.85,2,2,0,0,1-2.91,0,2.6,2.6,0,0,1-.57-1.79Zm22.18-3.19a5.33,5.33,0,0,1-.86,3,5.39,5.39,0,0,1-2.57,1.92,11.6,11.6,0,0,1-4.12.65,10.1,10.1,0,0,1-4-.71,5.79,5.79,0,0,1-2.44-1.77,3.61,3.61,0,0,1-.79-2.13,1.62,1.62,0,0,1,.51-1.21,1.7,1.7,0,0,1,1.27-.51,1.48,1.48,0,0,1,1,.34,3.46,3.46,0,0,1,.7.93,4.7,4.7,0,0,0,1.58,1.71,4.64,4.64,0,0,0,2.51.57,3.66,3.66,0,0,0,2.12-.57,1.62,1.62,0,0,0,.82-1.32,1.8,1.8,0,0,0-.85-1.66,10.86,10.86,0,0,0-2.83-1,24.31,24.31,0,0,1-3.62-1.16,6,6,0,0,1-2.22-1.6,3.66,3.66,0,0,1-.84-2.45,4.32,4.32,0,0,1,.77-2.44,5.36,5.36,0,0,1,2.28-1.84,8.64,8.64,0,0,1,3.63-.69,11.44,11.44,0,0,1,3,.35,7.35,7.35,0,0,1,2.22.93,4.58,4.58,0,0,1,1.36,1.29,2.54,2.54,0,0,1,.47,1.39,1.6,1.6,0,0,1-.5,1.21,1.94,1.94,0,0,1-1.41.48,1.75,1.75,0,0,1-1.13-.38,7.66,7.66,0,0,1-1.07-1.14,3.92,3.92,0,0,0-1.14-1,3.68,3.68,0,0,0-1.8-.37,3.54,3.54,0,0,0-1.94.49,1.46,1.46,0,0,0-.77,1.24,1.31,1.31,0,0,0,.57,1.11,4.54,4.54,0,0,0,1.53.72c.64.19,1.52.42,2.64.7a13.34,13.34,0,0,1,3.27,1.17,5.39,5.39,0,0,1,1.93,1.6,3.56,3.56,0,0,1,.65,2.1Zm7.94-9.44V1048a2.76,2.76,0,0,1-.61,2,2,2,0,0,1-1.55.66,2,2,0,0,1-1.54-.68,2.87,2.87,0,0,1-.59-1.93V1035.7a2.77,2.77,0,0,1,.59-1.92,2,2,0,0,1,1.54-.65,2.06,2.06,0,0,1,1.55.65,2.49,2.49,0,0,1,.61,1.79Zm-2.12-4.44a2.23,2.23,0,0,1-1.53-.55,2.12,2.12,0,0,1,0-3,2.18,2.18,0,0,1,1.52-.6,2.23,2.23,0,0,1,1.48.54,1.9,1.9,0,0,1,.64,1.55,2,2,0,0,1-.63,1.55,2.17,2.17,0,0,1-1.49.56Zm22.69,10.76a10.12,10.12,0,0,1-.6,3.54,7.85,7.85,0,0,1-1.74,2.79A7.64,7.64,0,0,1,2395,1050a9.67,9.67,0,0,1-3.54.62,9.32,9.32,0,0,1-3.52-.63,7.76,7.76,0,0,1-4.44-4.58,10,10,0,0,1-.59-3.54,10.27,10.27,0,0,1,.59-3.58,7.94,7.94,0,0,1,1.73-2.77,7.42,7.42,0,0,1,2.71-1.77,10.2,10.2,0,0,1,7.06,0,7.65,7.65,0,0,1,4.46,4.58,10.33,10.33,0,0,1,.59,3.55Zm-4.33,0a6.47,6.47,0,0,0-1.15-4.1,3.79,3.79,0,0,0-3.11-1.46,3.83,3.83,0,0,0-2.23.65,4.14,4.14,0,0,0-1.48,1.93,8.76,8.76,0,0,0,0,5.92,4.31,4.31,0,0,0,1.47,1.94,3.85,3.85,0,0,0,2.25.66,3.77,3.77,0,0,0,3.11-1.47,6.44,6.44,0,0,0,1.15-4.07ZM2391.9,1027H2394c.53,0,.8.08.8.23a4.37,4.37,0,0,1-.88,1c-.59.6-1.18,1.17-1.79,1.72a7,7,0,0,1-1.24,1,4.16,4.16,0,0,1-1.93.46c-.45,0-.68-.13-.68-.39a2.37,2.37,0,0,1,.41-.94l.71-1.31a4.41,4.41,0,0,1,1.08-1.47,2.47,2.47,0,0,1,1.39-.31Zm15.38,8.54v.52a7.58,7.58,0,0,1,2.49-2.2,6.59,6.59,0,0,1,3.1-.7,6.29,6.29,0,0,1,3.05.74,4.67,4.67,0,0,1,2,2.1,5.22,5.22,0,0,1,.55,1.7,18.54,18.54,0,0,1,.12,2.33v8a2.81,2.81,0,0,1-.59,2,2,2,0,0,1-1.54.66,2,2,0,0,1-1.56-.68,2.82,2.82,0,0,1-.6-1.93v-7.18a7.27,7.27,0,0,0-.59-3.26,2.4,2.4,0,0,0-2.36-1.12,3.51,3.51,0,0,0-2.1.68,3.93,3.93,0,0,0-1.38,1.89,13.36,13.36,0,0,0-.32,3.59v5.4a2.78,2.78,0,0,1-.6,2,2,2,0,0,1-1.56.66,2,2,0,0,1-1.53-.68,2.82,2.82,0,0,1-.6-1.93v-12.45a2.74,2.74,0,0,1,.53-1.83,1.89,1.89,0,0,1,1.47-.61,1.89,1.89,0,0,1,1.75,1.07,2.91,2.91,0,0,1,.27,1.31Zm37.53,9.5a5,5,0,0,1-3.43,5,11.6,11.6,0,0,1-4.12.65,10.1,10.1,0,0,1-4-.71,5.73,5.73,0,0,1-2.44-1.77,3.54,3.54,0,0,1-.79-2.13,1.62,1.62,0,0,1,.51-1.21,1.7,1.7,0,0,1,1.27-.51,1.49,1.49,0,0,1,1,.34,3.69,3.69,0,0,1,.7.93,4.14,4.14,0,0,0,4.09,2.28,3.62,3.62,0,0,0,2.11-.57,1.61,1.61,0,0,0,.83-1.32,1.8,1.8,0,0,0-.85-1.66,10.86,10.86,0,0,0-2.83-1,24.31,24.31,0,0,1-3.62-1.16,6,6,0,0,1-2.23-1.6,3.71,3.71,0,0,1-.83-2.45,4.32,4.32,0,0,1,.77-2.44,5.3,5.3,0,0,1,2.28-1.84,8.64,8.64,0,0,1,3.63-.69,11.44,11.44,0,0,1,3,.35,7.35,7.35,0,0,1,2.22.93,4.58,4.58,0,0,1,1.36,1.29,2.54,2.54,0,0,1,.47,1.39,1.6,1.6,0,0,1-.5,1.21,2,2,0,0,1-1.41.48,1.73,1.73,0,0,1-1.13-.38,7.17,7.17,0,0,1-1.07-1.14,3.83,3.83,0,0,0-1.15-1,3.61,3.61,0,0,0-1.79-.37,3.54,3.54,0,0,0-1.94.49,1.46,1.46,0,0,0-.77,1.24,1.31,1.31,0,0,0,.57,1.11,4.48,4.48,0,0,0,1.52.72c.64.19,1.53.42,2.65.7a13.34,13.34,0,0,1,3.27,1.17,5.27,5.27,0,0,1,1.92,1.6,3.5,3.5,0,0,1,.66,2.1Zm19.76-3.12a10.12,10.12,0,0,1-.6,3.54,7.85,7.85,0,0,1-1.74,2.79,7.64,7.64,0,0,1-2.71,1.79,9.68,9.68,0,0,1-3.55.62,9.27,9.27,0,0,1-3.51-.63,7.76,7.76,0,0,1-4.44-4.58,10,10,0,0,1-.59-3.54,10.27,10.27,0,0,1,.59-3.58,8.06,8.06,0,0,1,1.72-2.77,7.54,7.54,0,0,1,2.72-1.77,9.45,9.45,0,0,1,3.51-.63,9.55,9.55,0,0,1,3.55.63,7.65,7.65,0,0,1,4.46,4.58,10.33,10.33,0,0,1,.59,3.55Zm-4.33,0a6.53,6.53,0,0,0-1.15-4.1,4.08,4.08,0,0,0-5.34-.81,4.14,4.14,0,0,0-1.48,1.93,8.76,8.76,0,0,0,0,5.92,4.31,4.31,0,0,0,1.47,1.94,3.82,3.82,0,0,0,2.24.66,3.77,3.77,0,0,0,3.12-1.47,6.5,6.5,0,0,0,1.15-4.07Zm23.16,3.42a3.77,3.77,0,0,1-.49,1.72,6,6,0,0,1-1.46,1.73,7.55,7.55,0,0,1-2.49,1.33,10.37,10.37,0,0,1-3.37.51,8.24,8.24,0,0,1-6.23-2.33,8.6,8.6,0,0,1-2.24-6.23,10.14,10.14,0,0,1,1-4.68,7.33,7.33,0,0,1,3-3.15,10.1,10.1,0,0,1,7.71-.62,8.38,8.38,0,0,1,2.36,1.26,6.25,6.25,0,0,1,1.48,1.65,3.31,3.31,0,0,1,.51,1.64,1.74,1.74,0,0,1-.57,1.31,2,2,0,0,1-1.4.53,1.43,1.43,0,0,1-.89-.27,4.61,4.61,0,0,1-.79-.89,6.64,6.64,0,0,0-1.65-1.8,3.75,3.75,0,0,0-2.19-.6,3.7,3.7,0,0,0-3.07,1.5,6.39,6.39,0,0,0-1.17,4.06,7.85,7.85,0,0,0,.31,2.23,4.92,4.92,0,0,0,.86,1.73A3.79,3.79,0,0,0,2474,1047a4.16,4.16,0,0,0,1.77.37,4,4,0,0,0,2.21-.6,5.24,5.24,0,0,0,1.64-1.82,3.77,3.77,0,0,1,.85-1.14,1.61,1.61,0,0,1,1.12-.41,1.67,1.67,0,0,1,1.3.6,1.93,1.93,0,0,1,.53,1.28Zm8-9.74V1048a2.76,2.76,0,0,1-.61,2,2,2,0,0,1-1.55.66,2,2,0,0,1-1.54-.68,2.87,2.87,0,0,1-.59-1.93V1035.7a2.77,2.77,0,0,1,.59-1.92,2,2,0,0,1,1.54-.65,2,2,0,0,1,1.55.65,2.49,2.49,0,0,1,.61,1.79Zm-2.12-4.44a2.23,2.23,0,0,1-1.53-.55,2.12,2.12,0,0,1,0-3,2.18,2.18,0,0,1,1.52-.6,2.23,2.23,0,0,1,1.48.54,1.9,1.9,0,0,1,.64,1.55,2,2,0,0,1-.63,1.55,2.17,2.17,0,0,1-1.49.56Zm17.45,17.08a13.54,13.54,0,0,1-3,1.82,8.51,8.51,0,0,1-3.27.6,6.18,6.18,0,0,1-2.91-.66,4.73,4.73,0,0,1-1.93-1.77,4.58,4.58,0,0,1-.68-2.42,4.32,4.32,0,0,1,1.12-3,5.61,5.61,0,0,1,3.09-1.67c.26-.07.94-.21,2-.43s2-.42,2.79-.61,1.6-.4,2.51-.67a4.57,4.57,0,0,0-.68-2.49,3.09,3.09,0,0,0-2.52-.8,5.19,5.19,0,0,0-2.47.46,3.94,3.94,0,0,0-1.42,1.37c-.39.61-.67,1-.83,1.21a1.42,1.42,0,0,1-1,.29,1.8,1.8,0,0,1-1.25-.47,1.53,1.53,0,0,1-.53-1.19,3.66,3.66,0,0,1,.8-2.21,5.78,5.78,0,0,1,2.51-1.77,11.33,11.33,0,0,1,4.24-.69,12.13,12.13,0,0,1,4.46.67,4.18,4.18,0,0,1,2.3,2.12,9.4,9.4,0,0,1,.67,3.85c0,1,0,1.87,0,2.57s0,1.49,0,2.35a8.54,8.54,0,0,0,.4,2.53,7.72,7.72,0,0,1,.4,1.69,1.6,1.6,0,0,1-.62,1.21,2.12,2.12,0,0,1-1.42.54,1.86,1.86,0,0,1-1.3-.62,9.26,9.26,0,0,1-1.38-1.8Zm-.28-6.23a20.83,20.83,0,0,1-2.75.73c-1.2.26-2,.45-2.5.57a3.42,3.42,0,0,0-1.32.71,1.83,1.83,0,0,0-.63,1.48,2.18,2.18,0,0,0,.74,1.66,2.72,2.72,0,0,0,1.94.69,5.06,5.06,0,0,0,2.35-.56,3.76,3.76,0,0,0,1.59-1.45,6.58,6.58,0,0,0,.58-3.22V1042Zm8.59,6v-18.67a2.86,2.86,0,0,1,.58-1.95,2,2,0,0,1,1.55-.66,2,2,0,0,1,1.57.66,2.78,2.78,0,0,1,.59,1.95V1048a2.78,2.78,0,0,1-.6,2,2,2,0,0,1-1.56.66,2,2,0,0,1-1.54-.68,2.87,2.87,0,0,1-.59-1.93Zm-613.3-17.37h-3.15v7.07h3.15a9.44,9.44,0,0,0,2.77-.35,3.28,3.28,0,0,0,1.7-1.14,3.35,3.35,0,0,0,.58-2.06,3.5,3.5,0,0,0-.9-2.5c-.67-.68-2.05-1-4.15-1Zm28.29,11.24a10.12,10.12,0,0,1-.6,3.54,7.85,7.85,0,0,1-1.74,2.79A7.64,7.64,0,0,1,1925,1050a9.67,9.67,0,0,1-3.54.62,9.32,9.32,0,0,1-3.52-.63,7.76,7.76,0,0,1-4.44-4.58,10,10,0,0,1-.59-3.54,10.27,10.27,0,0,1,.59-3.58,8.06,8.06,0,0,1,1.72-2.77,7.54,7.54,0,0,1,2.72-1.77,10.2,10.2,0,0,1,7.06,0,7.65,7.65,0,0,1,4.46,4.58,10.33,10.33,0,0,1,.59,3.55Zm-4.33,0a6.47,6.47,0,0,0-1.15-4.1,3.79,3.79,0,0,0-3.11-1.46,3.83,3.83,0,0,0-2.23.65,4.14,4.14,0,0,0-1.48,1.93,8.76,8.76,0,0,0,0,5.92,4.31,4.31,0,0,0,1.47,1.94,3.85,3.85,0,0,0,2.25.66,3.77,3.77,0,0,0,3.11-1.47,6.44,6.44,0,0,0,1.15-4.07Zm12,2.53v3.6a2.73,2.73,0,0,1-.61,2,2,2,0,0,1-1.56.66,2,2,0,0,1-1.53-.66,2.86,2.86,0,0,1-.59-2v-12c0-1.93.7-2.9,2.09-2.9a1.75,1.75,0,0,1,1.54.68,3.69,3.69,0,0,1,.52,2,7.36,7.36,0,0,1,1.58-2,3.31,3.31,0,0,1,2.17-.68,5.57,5.57,0,0,1,2.63.68,2,2,0,0,1,1.28,1.8,1.68,1.68,0,0,1-.55,1.3,1.65,1.65,0,0,1-1.17.52,5.18,5.18,0,0,1-1.14-.3,5.49,5.49,0,0,0-1.6-.29,2.38,2.38,0,0,0-1.55.5,3.16,3.16,0,0,0-.93,1.47,10.67,10.67,0,0,0-.46,2.33c-.08.9-.12,2-.12,3.28Zm18,3.6v-18.67a2.86,2.86,0,0,1,.58-1.95,1.93,1.93,0,0,1,1.55-.66,2,2,0,0,1,1.57.66,2.82,2.82,0,0,1,.59,1.95V1048a2.78,2.78,0,0,1-.6,2,2,2,0,0,1-1.56.66,2,2,0,0,1-1.54-.68,2.87,2.87,0,0,1-.59-1.93Zm19.62.19a13.72,13.72,0,0,1-3,1.82,8.59,8.59,0,0,1-3.28.6,6.18,6.18,0,0,1-2.91-.66,4.73,4.73,0,0,1-1.93-1.77,4.58,4.58,0,0,1-.68-2.42,4.32,4.32,0,0,1,1.12-3,5.61,5.61,0,0,1,3.09-1.67c.26-.07.94-.21,2-.43s2-.42,2.79-.61,1.6-.4,2.51-.67a4.48,4.48,0,0,0-.69-2.49,3.05,3.05,0,0,0-2.51-.8,5.19,5.19,0,0,0-2.47.46,3.94,3.94,0,0,0-1.42,1.37c-.39.61-.67,1-.83,1.21a1.42,1.42,0,0,1-1,.29,1.8,1.8,0,0,1-1.25-.47,1.53,1.53,0,0,1-.53-1.19,3.66,3.66,0,0,1,.8-2.21,5.78,5.78,0,0,1,2.51-1.77,11.33,11.33,0,0,1,4.24-.69,12.13,12.13,0,0,1,4.46.67,4.18,4.18,0,0,1,2.3,2.12,9.4,9.4,0,0,1,.67,3.85c0,1,0,1.87,0,2.57s0,1.49,0,2.35a8.54,8.54,0,0,0,.4,2.53,7.72,7.72,0,0,1,.4,1.69,1.6,1.6,0,0,1-.62,1.21,2.12,2.12,0,0,1-1.42.54,1.86,1.86,0,0,1-1.3-.62,9.26,9.26,0,0,1-1.38-1.8ZM1975,1042a20.83,20.83,0,0,1-2.75.73c-1.2.26-2,.45-2.5.57a3.42,3.42,0,0,0-1.32.71,1.83,1.83,0,0,0-.63,1.48,2.18,2.18,0,0,0,.74,1.66,2.72,2.72,0,0,0,1.94.69,5.06,5.06,0,0,0,2.35-.56,3.76,3.76,0,0,0,1.59-1.45,6.69,6.69,0,0,0,.58-3.22V1042Zm20.63-6.43v.52a8.45,8.45,0,0,1,2.53-2.2,6.11,6.11,0,0,1,3-.71,6.76,6.76,0,0,1,3.65,1,7.05,7.05,0,0,1,2.65,3,10.58,10.58,0,0,1,1,4.67,11.5,11.5,0,0,1-.56,3.65,8.41,8.41,0,0,1-1.54,2.79A6.63,6.63,0,0,1,2004,1050a6.74,6.74,0,0,1-2.86.61,6.05,6.05,0,0,1-3.1-.74,8.88,8.88,0,0,1-2.39-2.18v6.47c0,1.9-.69,2.84-2.06,2.84a1.65,1.65,0,0,1-1.61-.73,4.54,4.54,0,0,1-.39-2.14v-18.58a2.68,2.68,0,0,1,.53-1.83,1.89,1.89,0,0,1,1.47-.61,1.92,1.92,0,0,1,1.49.63,2.57,2.57,0,0,1,.57,1.79Zm8.43,6.26a7.36,7.36,0,0,0-.52-2.92,4.41,4.41,0,0,0-1.44-1.88,3.51,3.51,0,0,0-2-.65,3.83,3.83,0,0,0-3,1.4,6.15,6.15,0,0,0-1.22,4.13,6,6,0,0,0,1.21,4,3.79,3.79,0,0,0,3,1.42,3.49,3.49,0,0,0,2-.62,4.25,4.25,0,0,0,1.47-1.86,7.39,7.39,0,0,0,.55-3Zm12,2.61v3.6a2.73,2.73,0,0,1-.61,2,2,2,0,0,1-1.56.66,1.94,1.94,0,0,1-1.52-.66,2.81,2.81,0,0,1-.6-2v-12c0-1.93.7-2.9,2.09-2.9a1.75,1.75,0,0,1,1.54.68,3.69,3.69,0,0,1,.52,2,7.36,7.36,0,0,1,1.58-2,3.31,3.31,0,0,1,2.17-.68,5.54,5.54,0,0,1,2.63.68,2,2,0,0,1,1.28,1.8,1.7,1.7,0,0,1-.54,1.3,1.69,1.69,0,0,1-1.18.52,5.33,5.33,0,0,1-1.14-.3,5.49,5.49,0,0,0-1.6-.29,2.38,2.38,0,0,0-1.55.5,3.24,3.24,0,0,0-.93,1.47,10.14,10.14,0,0,0-.45,2.33c-.08.9-.13,2-.13,3.28Zm14.17-8.85V1048a2.76,2.76,0,0,1-.61,2,2,2,0,0,1-1.55.66,2,2,0,0,1-1.54-.68,2.87,2.87,0,0,1-.59-1.93V1035.7a2.77,2.77,0,0,1,.59-1.92,2,2,0,0,1,1.54-.65,2,2,0,0,1,1.55.65,2.49,2.49,0,0,1,.61,1.79Zm-2.12-4.44a2.23,2.23,0,0,1-1.53-.55,2.12,2.12,0,0,1,0-3,2.18,2.18,0,0,1,1.52-.6,2.23,2.23,0,0,1,1.48.54,1.9,1.9,0,0,1,.64,1.55,2,2,0,0,1-.62,1.55,2.2,2.2,0,0,1-1.5.56ZM2049,1042.2v5.72a2.93,2.93,0,0,1-.61,2,2.09,2.09,0,0,1-1.62.68,2,2,0,0,1-1.58-.68,2.93,2.93,0,0,1-.61-2v-6.86a22.89,22.89,0,0,0-.11-2.52,2.65,2.65,0,0,0-.6-1.47,1.91,1.91,0,0,0-1.55-.58,2.73,2.73,0,0,0-2.78,1.45,10.15,10.15,0,0,0-.68,4.16v5.82a3,3,0,0,1-.6,2,2.21,2.21,0,0,1-3.19,0,2.92,2.92,0,0,1-.63-2v-12.31a2.73,2.73,0,0,1,.56-1.85,1.86,1.86,0,0,1,1.47-.63,2,2,0,0,1,1.47.59,2.2,2.2,0,0,1,.6,1.63v.41a7.45,7.45,0,0,1,2.39-2,6.33,6.33,0,0,1,2.84-.63,5.7,5.7,0,0,1,2.79.65,5,5,0,0,1,1.92,2,7.65,7.65,0,0,1,2.34-2,6,6,0,0,1,2.76-.64,6.32,6.32,0,0,1,3,.7,4.41,4.41,0,0,1,1.91,2,9.31,9.31,0,0,1,.54,3.67v8.41a2.93,2.93,0,0,1-.61,2,2.25,2.25,0,0,1-3.22,0,3,3,0,0,1-.62-2v-7.24a16.37,16.37,0,0,0-.12-2.22,2.59,2.59,0,0,0-.64-1.41,2.05,2.05,0,0,0-1.58-.56,2.9,2.9,0,0,0-1.62.51,3.37,3.37,0,0,0-1.18,1.35,10.62,10.62,0,0,0-.48,3.85Zm26.27.75h-8.42a5.7,5.7,0,0,0,.59,2.58,4,4,0,0,0,3.63,2.26,5.13,5.13,0,0,0,1.41-.18,4.47,4.47,0,0,0,1.24-.57,8.55,8.55,0,0,0,1.1-.83q.51-.43,1.32-1.2a1.39,1.39,0,0,1,.94-.28,1.56,1.56,0,0,1,1.07.36,1.3,1.3,0,0,1,.41,1,2.85,2.85,0,0,1-.45,1.36,5.62,5.62,0,0,1-1.39,1.49,7.82,7.82,0,0,1-2.31,1.19,10.14,10.14,0,0,1-3.21.47,8.55,8.55,0,0,1-6.44-2.37,8.76,8.76,0,0,1-2.3-6.41,10.9,10.9,0,0,1,.56-3.54,7.78,7.78,0,0,1,1.66-2.8,7.35,7.35,0,0,1,2.67-1.79,9.78,9.78,0,0,1,3.54-.62,8.34,8.34,0,0,1,4.32,1.07,7,7,0,0,1,2.71,2.75,7.33,7.33,0,0,1,.9,3.44,2.18,2.18,0,0,1-.93,2.11,6,6,0,0,1-2.62.48Zm-8.42-2.46h7.8a5.21,5.21,0,0,0-1.19-3.3,3.59,3.59,0,0,0-2.72-1.09,3.45,3.45,0,0,0-2.64,1.11,5.48,5.48,0,0,0-1.25,3.28Zm19.86,3.93v3.6a2.78,2.78,0,0,1-.61,2,2,2,0,0,1-1.56.66,2,2,0,0,1-1.53-.66,2.86,2.86,0,0,1-.59-2v-12c0-1.93.7-2.9,2.09-2.9a1.75,1.75,0,0,1,1.54.68,3.69,3.69,0,0,1,.52,2,7.36,7.36,0,0,1,1.58-2,3.31,3.31,0,0,1,2.17-.68,5.57,5.57,0,0,1,2.63.68,2,2,0,0,1,1.28,1.8,1.68,1.68,0,0,1-.55,1.3,1.65,1.65,0,0,1-1.17.52,5.18,5.18,0,0,1-1.14-.3,5.49,5.49,0,0,0-1.6-.29,2.36,2.36,0,0,0-1.55.5,3.16,3.16,0,0,0-.93,1.47,10.67,10.67,0,0,0-.46,2.33c-.08.9-.12,2-.12,3.28Zm20,3.79a13.54,13.54,0,0,1-3,1.82,8.51,8.51,0,0,1-3.27.6,6.15,6.15,0,0,1-2.91-.66,4.73,4.73,0,0,1-1.93-1.77,4.58,4.58,0,0,1-.68-2.42,4.32,4.32,0,0,1,1.12-3,5.58,5.58,0,0,1,3.08-1.67c.27-.07,1-.21,2-.43s2-.42,2.78-.61,1.61-.4,2.52-.67a4.48,4.48,0,0,0-.69-2.49,3.08,3.08,0,0,0-2.52-.8,5.14,5.14,0,0,0-2.46.46,3.94,3.94,0,0,0-1.42,1.37c-.39.61-.67,1-.83,1.21a1.42,1.42,0,0,1-1,.29,1.84,1.84,0,0,1-1.26-.47,1.52,1.52,0,0,1-.52-1.19,3.6,3.6,0,0,1,.8-2.21,5.8,5.8,0,0,1,2.5-1.77,11.39,11.39,0,0,1,4.25-.69,12.13,12.13,0,0,1,4.46.67,4.13,4.13,0,0,1,2.29,2.12,9.24,9.24,0,0,1,.67,3.85c0,1,0,1.87,0,2.57s0,1.49,0,2.35a8.56,8.56,0,0,0,.41,2.53,7.47,7.47,0,0,1,.39,1.69,1.59,1.59,0,0,1-.61,1.21,2.12,2.12,0,0,1-1.42.54,1.88,1.88,0,0,1-1.31-.62,9.27,9.27,0,0,1-1.37-1.8Zm-.28-6.23a20.83,20.83,0,0,1-2.75.73c-1.2.26-2,.45-2.5.57a3.42,3.42,0,0,0-1.32.71,1.83,1.83,0,0,0-.63,1.48,2.15,2.15,0,0,0,.74,1.66,2.71,2.71,0,0,0,1.94.69,5.06,5.06,0,0,0,2.35-.56,3.67,3.67,0,0,0,1.58-1.45,6.56,6.56,0,0,0,.59-3.22V1042Zm21-6.41V1048a2.76,2.76,0,0,1-.61,2,2,2,0,0,1-1.56.66,2,2,0,0,1-1.53-.68,2.87,2.87,0,0,1-.59-1.93V1035.7a2.77,2.77,0,0,1,.59-1.92,2,2,0,0,1,1.53-.65,2.07,2.07,0,0,1,1.56.65,2.49,2.49,0,0,1,.61,1.79Zm-2.12-4.44a2.27,2.27,0,0,1-1.54-.55,2,2,0,0,1-.63-1.56,1.93,1.93,0,0,1,.65-1.49,2.18,2.18,0,0,1,1.52-.6,2.23,2.23,0,0,1,1.48.54,1.9,1.9,0,0,1,.64,1.55,2,2,0,0,1-.63,1.55,2.17,2.17,0,0,1-1.49.56Zm10.47,4.38v.52a7.58,7.58,0,0,1,2.49-2.2,6.59,6.59,0,0,1,3.1-.7,6.29,6.29,0,0,1,3,.74,4.67,4.67,0,0,1,2,2.1,5.22,5.22,0,0,1,.55,1.7,18.54,18.54,0,0,1,.12,2.33v8a2.81,2.81,0,0,1-.59,2,2,2,0,0,1-1.54.66,2,2,0,0,1-1.56-.68,2.82,2.82,0,0,1-.6-1.93v-7.18a7.27,7.27,0,0,0-.59-3.26,2.4,2.4,0,0,0-2.36-1.12,3.51,3.51,0,0,0-2.1.68,3.93,3.93,0,0,0-1.38,1.89,13.36,13.36,0,0,0-.32,3.59v5.4a2.78,2.78,0,0,1-.6,2,2,2,0,0,1-1.56.66,2,2,0,0,1-1.53-.68,2.82,2.82,0,0,1-.6-1.93v-12.45a2.74,2.74,0,0,1,.53-1.83,1.89,1.89,0,0,1,1.47-.61,1.89,1.89,0,0,1,1.75,1.07,2.91,2.91,0,0,1,.27,1.31Zm15.26-2h1v-1.29a8.28,8.28,0,0,1,.51-3.21,3.27,3.27,0,0,1,1.73-1.74,8.43,8.43,0,0,1,3.34-.54c2.51,0,3.77.61,3.77,1.84a1.44,1.44,0,0,1-.39,1,1.22,1.22,0,0,1-.94.43c-.16,0-.45,0-.86-.09a6.21,6.21,0,0,0-1-.1q-1.17,0-1.5.69a4.62,4.62,0,0,0-.33,2v1h1.06c1.64,0,2.45.49,2.45,1.48,0,.7-.21,1.15-.65,1.33a4.59,4.59,0,0,1-1.8.29h-1.06V1048a2.79,2.79,0,0,1-.61,1.94,2,2,0,0,1-1.56.67,2,2,0,0,1-1.52-.67,2.83,2.83,0,0,1-.6-1.94v-11.4h-1.19a2.31,2.31,0,0,1-1.48-.43,1.4,1.4,0,0,1-.52-1.13c0-1,.72-1.54,2.16-1.54Zm21.55,14.69a8.89,8.89,0,0,0,1.37,1.8,1.88,1.88,0,0,0,1.31.62,2.09,2.09,0,0,0,1.41-.54,1.57,1.57,0,0,0,.62-1.21,7.72,7.72,0,0,0-.4-1.69,8.88,8.88,0,0,1-.4-2.53c0-.86,0-1.64,0-2.35s0-1.56,0-2.57a9.24,9.24,0,0,0-.67-3.85,4.16,4.16,0,0,0-2.29-2.12,12.13,12.13,0,0,0-4.46-.67,11.39,11.39,0,0,0-4.25.69,5.84,5.84,0,0,0-2.51,1.77,3.66,3.66,0,0,0-.8,2.21,1.53,1.53,0,0,0,.53,1.19,1.83,1.83,0,0,0,1.25.47,1.38,1.38,0,0,0,1-.29c.16-.2.44-.6.84-1.21a3.86,3.86,0,0,1,1.42-1.37,5.14,5.14,0,0,1,2.46-.46,3.08,3.08,0,0,1,2.52.8,4.49,4.49,0,0,1,.68,2.49c-.9.27-1.74.49-2.51.67s-1.7.39-2.78.61-1.76.36-2,.43a5.55,5.55,0,0,0-3.08,1.67,4.32,4.32,0,0,0-1.12,3,4.5,4.5,0,0,0,.68,2.42,4.67,4.67,0,0,0,1.93,1.77,6.15,6.15,0,0,0,2.91.66,8.54,8.54,0,0,0,3.27-.6,13.76,13.76,0,0,0,3-1.82Zm-.29-6.23v.61a6.58,6.58,0,0,1-.58,3.22,3.7,3.7,0,0,1-1.59,1.45,5,5,0,0,1-2.35.56,2.7,2.7,0,0,1-1.93-.69,2.16,2.16,0,0,1-.75-1.66,1.83,1.83,0,0,1,.63-1.48,3.39,3.39,0,0,1,1.33-.71q.69-.18,2.49-.57a20.4,20.4,0,0,0,2.75-.73Zm12.49-6.47v.52a7.58,7.58,0,0,1,2.49-2.2,6.59,6.59,0,0,1,3.1-.7,6.25,6.25,0,0,1,3,.74,4.62,4.62,0,0,1,2,2.1,5,5,0,0,1,.56,1.7,18.54,18.54,0,0,1,.12,2.33v8a2.86,2.86,0,0,1-.59,2,2,2,0,0,1-1.54.66,2,2,0,0,1-1.56-.68,2.82,2.82,0,0,1-.6-1.93v-7.18a7.27,7.27,0,0,0-.59-3.26,2.41,2.41,0,0,0-2.36-1.12,3.51,3.51,0,0,0-2.1.68,3.93,3.93,0,0,0-1.38,1.89,13.36,13.36,0,0,0-.32,3.59v5.4a2.73,2.73,0,0,1-.61,2,2,2,0,0,1-1.56.66,2,2,0,0,1-1.53-.68,2.87,2.87,0,0,1-.59-1.93v-12.45a2.68,2.68,0,0,1,.53-1.83,1.86,1.86,0,0,1,1.46-.61,2,2,0,0,1,1,.27,2,2,0,0,1,.73.8,2.91,2.91,0,0,1,.27,1.31Zm31,9.8a3.74,3.74,0,0,1-.48,1.72,6,6,0,0,1-1.46,1.73,7.55,7.55,0,0,1-2.49,1.33,10.42,10.42,0,0,1-3.37.51,8.24,8.24,0,0,1-6.23-2.33,8.56,8.56,0,0,1-2.24-6.23,10.27,10.27,0,0,1,1-4.68,7.41,7.41,0,0,1,3-3.15,9.21,9.21,0,0,1,4.64-1.11,9.09,9.09,0,0,1,3.06.49,8.31,8.31,0,0,1,2.37,1.26,6.25,6.25,0,0,1,1.48,1.65,3.31,3.31,0,0,1,.51,1.64,1.74,1.74,0,0,1-.57,1.31,2,2,0,0,1-1.4.53,1.43,1.43,0,0,1-.89-.27,4.6,4.6,0,0,1-.8-.89,6.47,6.47,0,0,0-1.64-1.8,3.75,3.75,0,0,0-2.19-.6,3.69,3.69,0,0,0-3.07,1.5,6.39,6.39,0,0,0-1.17,4.06,8.24,8.24,0,0,0,.3,2.23,4.94,4.94,0,0,0,.87,1.73,3.71,3.71,0,0,0,1.37,1.09,4.16,4.16,0,0,0,1.77.37,4,4,0,0,0,2.21-.6A5.13,5.13,0,0,0,2212,1045a4.13,4.13,0,0,1,.85-1.14,1.65,1.65,0,0,1,1.12-.41,1.68,1.68,0,0,1,1.31.6,1.92,1.92,0,0,1,.52,1.28Zm8-9.74V1048a2.76,2.76,0,0,1-.61,2,2,2,0,0,1-1.56.66,1.93,1.93,0,0,1-1.53-.68,2.87,2.87,0,0,1-.59-1.93V1035.7a2.77,2.77,0,0,1,.59-1.92,2,2,0,0,1,1.53-.65,2.07,2.07,0,0,1,1.56.65,2.49,2.49,0,0,1,.61,1.79Zm-2.12-4.44a2.27,2.27,0,0,1-1.54-.55,2,2,0,0,1-.63-1.56,1.9,1.9,0,0,1,.65-1.49,2.16,2.16,0,0,1,1.52-.6,2.23,2.23,0,0,1,1.48.54,1.9,1.9,0,0,1,.64,1.55,2,2,0,0,1-.63,1.55A2.17,2.17,0,0,1,2221.68,1031.13Z" transform="translate(1902.07 109.13)"/><path class="cls-5" d="M2482.59,568.29c-29.41,19.47-69.29,23.77-96.31,9.47a221,221,0,0,1-26.08-21.61c-14.52-13.64-29,0-25.09,15a164.18,164.18,0,0,0,8.36,21.56c14.22,31.38,26.63,53.62,51.24,69.89l-.35-.23c23.76-27.1,53.45-45.74,88.18-46.25,13.23-.19,26.74,9.4,38.31,26.29,23-27.51,38.91-65.48,42.7-94.15,4-29.93,5.25-61.61-12.76-59.86-14.58,1.43-15.58,21.52-30.54,43.8C2509.74,547.82,2495.61,559.68,2482.59,568.29Z" transform="translate(1902.07 109.13)"/><path class="cls-6" d="M2520.85,642.37c24,35,39.7,101.46,27.42,177.06-5.31,22.44-37.62,20.19-42.11,0-16.77-55.39-45.35-113.55-126.82-20.09-20.29,27.15-47.51,14.25-46.74-3.53,8.15-44.35,29.77-97.42,62.53-134.35l-.77.87a133,133,0,0,0,23.83,12.41c39,15.92,78.66-5.26,99.59-28.8C2518.81,644.77,2519.84,643.58,2520.85,642.37Z" transform="translate(1902.07 109.13)"/><path class="cls-5" d="M2443.17,490.13a40.72,40.72,0,1,1-40.72,40.71A40.71,40.71,0,0,1,2443.17,490.13Z" transform="translate(1902.07 109.13)"/><path class="cls-7" d="M2394.36,662.33a133,133,0,0,0,23.83,12.41c39,15.92,78.66-5.26,99.59-28.8,1-1.17,2.06-2.36,3.07-3.57-11.57-16.89-25.08-26.48-38.31-26.29C2447.81,616.59,2418.12,635.23,2394.36,662.33Z" transform="translate(1902.07 109.13)"/><path class="cls-8" d="M2488.93,594.47c-1.24-1.55-4.06-6.48-9.59-9.54-14.5-8-29.81,12.76-20.35,27.75,4.74,7.52,24.57,29.09,35.46,29.09a23.27,23.27,0,0,0,4.34-.56c10.62-2.4,24.36-28.63,27.06-37.13,5.36-16.89-14.71-33.1-26.71-21.69-4.58,4.35-6.06,9.84-6.87,11.65S2490.18,596,2488.93,594.47Z" transform="translate(1902.07 109.13)"/><g class="cls-11"><use transform="translate(0 1235.4) scale(2.99)" xlink:href="#image"/><use transform="translate(14.03 1410.76) scale(2.99)" xlink:href="#image"/></g><g class="cls-12"><use transform="translate(14.03 1270.47) scale(2.99)" xlink:href="#image"/><use transform="translate(14.03 1410.76) scale(2.99)" xlink:href="#image"/></g></g></svg>