<?xml version="1.0" encoding="UTF-8"?>
<!DOCTYPE svg PUBLIC "-//W3C//DTD SVG 1.1//EN" "http://www.w3.org/Graphics/SVG/1.1/DTD/svg11.dtd">
<!-- Creator: CorelDRAW 2020 (64-Bit) -->
<svg xmlns="http://www.w3.org/2000/svg" xml:space="preserve" width="177.994mm" height="153.987mm" version="1.1" style="shape-rendering:geometricPrecision; text-rendering:geometricPrecision; image-rendering:optimizeQuality; fill-rule:evenodd; clip-rule:evenodd"
viewBox="0 0 17986.67 15560.7"
 xmlns:xlink="http://www.w3.org/1999/xlink"
 xmlns:xodm="http://www.corel.com/coreldraw/odm/2003">
 <defs>
  <style type="text/css">
   <![CDATA[
    .fil0 {fill:none}
    .fil5 {fill:#F6AFCE}
    .fil6 {fill:#C882B6}
    .fil4 {fill:#81D4F7}
    .fil1 {fill:#009EDF}
    .fil7 {fill:white}
    .fil3 {fill:#842F30;fill-rule:nonzero}
    .fil2 {fill:#2957A4;fill-rule:nonzero}
   ]]>
  </style>
 </defs>
 <g id="Capa_x0020_1">
  <metadata id="CorelCorpID_0Corel-Layer"/>
  <rect class="fil0" y="-0.01" width="17986.67" height="15560.69"/>
  <g id="_1736456375776">
   <path class="fil1" d="M11268.02 11047.19l245.15 349.72c-153.73,252.18 314.61,423.42 474.03,256.93l207.89 -197.35c0,0 273.23,262.7 347.98,261.55 74.75,-1.14 174.57,-75.31 174.57,-75.31 46.68,-35.94 109.59,20.19 123.76,111.55l-1.82 342.28c-1.27,240.14 71.29,379.33 310.08,249.72 111.86,-60.72 131.95,-198.54 131.95,-198.54l-48.87 -958.73c-14.5,-208.02 -79.66,-311.32 -190.78,-408.07l-84.96 -83.46c80.95,-101.2 386.74,-178.02 242.87,-303.6l394.71 -982.07 -32.51 -380.89c-19.56,-149.18 314.99,-224.92 308.96,-458.08 0.13,-180.66 175.49,-268.57 259.09,-349.47 72.36,-70.05 260.23,-214.56 337.28,-385.04 108.44,-239.9 78.63,-551.79 -72.38,-579.17 -111.17,-20.14 -443.68,-86.42 -527.75,-107.44 -84.09,-21.03 -219.51,-86.41 -364.31,-67.74 -144.79,18.7 -368.98,422.71 -368.98,422.71 0,0 -81.74,-39.69 -191.49,-119.11 -109.77,-79.41 -112.11,-434.39 -112.11,-434.39 0,0 -544.22,-473.39 -998.82,-823.08 -47.24,177.16 -141.27,307 -158.71,384.09 435.95,1241.3 260.85,3307.39 -404.82,4532.97z"/>
   <path class="fil1" d="M10295.05 4383.77c-141.67,-269.41 -204.04,-412.82 -204.04,-412.82l300.07 -603.41c336.67,-506.41 -152.76,-349.31 -200.79,-275.87 -46.06,70.42 -339.81,206.7 -478.74,217.2 -138.95,10.5 -338.67,-158.81 -338.67,-158.81 0,0 -219.51,42.03 -338.6,18.68 -119.09,-23.35 -184.5,-245.22 -184.5,-245.22 0,0 -158.81,32.7 -548.81,112.12 -390,79.41 -526.62,344.43 -559.33,442.53 -32.7,98.09 -28.01,77.07 -156.46,221.87 -128.44,144.79 -39.7,552.3 -39.7,552.3l472 485.14c84.12,105.7 -452.1,807.36 -563.01,715.34 0,0 -192.53,-180.13 -321.15,-246.52 -257.3,-222.14 -579.17,11.7 -579.17,11.7 -188.83,151.01 228.74,391.93 408.69,562.8 0,0 712.69,599.2 766.84,805.08 54.15,205.87 425.1,494.2 693.45,222.12 139.03,-66.05 213.01,41.28 319.52,61.91l193.12 251.31c72.33,-142.04 149.93,-279.46 238.52,-407.1 -309.49,-453.53 -358.44,-541.24 -478.51,-989.02 -188.43,-702.72 334.14,-763.48 807.64,-448.96 4.5,-675.65 460.19,-894 791.64,-892.36z"/>
   <path class="fil2" d="M3691.65 10392.84c-73.12,0 -129.19,-21.46 -168.15,-63.99 -38.96,-42.54 -58.43,-104.16 -58.43,-185.27l0 -1011.3c0,-81.06 19.47,-143.1 58.43,-186.02 38.96,-42.93 95.03,-64.4 168.15,-64.4 73.93,0 130.4,21.47 169.33,64.4 38.98,42.92 58.45,104.95 58.45,186.02l0 337.53 306.49 -411.44c45.31,-60.45 89.44,-104.97 132.37,-133.57 42.93,-28.62 95,-42.94 156.23,-42.94 58.83,0 104.15,13.52 135.56,40.54 31.4,27.03 46.91,64.8 46.91,113.31 0,29.41 -4.76,56.83 -14.7,82.68 -9.96,25.83 -25.44,51.66 -46.12,77.11l-225.4 276.68c-66.79,82.67 -113.28,133.16 -139.53,151.45 23.85,18.29 73.55,75.55 149.08,171.74l214.65 273.1c22.24,28.6 37.74,54.45 46.11,77.51 8.34,23.05 12.32,50.5 12.32,82.29 0,49.29 -18.28,89.03 -55.26,119.25 -36.96,30.22 -85.86,45.31 -146.29,45.31 -42.13,0 -78.31,-5.96 -108.49,-17.48 -30.24,-11.53 -57.28,-28.65 -81.12,-51.68 -23.83,-23.08 -49.68,-54.47 -77.52,-94.22l-305.29 -435.28 0 349.41c0,81.1 -19.47,142.73 -58.45,185.27 -38.94,42.52 -95.4,63.99 -169.33,63.99zm2107.91 -7.09c-70.68,0 -121.65,-13.12 -152.64,-39.33 -30.99,-26.24 -46.5,-65.2 -46.5,-116.88l0 -21.47c-11.93,31 -32.64,60.83 -62.03,89.82 -29.4,29 -68.39,53.33 -116.86,72.37 -48.49,19.07 -104.56,28.61 -168.15,28.61 -82.69,0 -156.64,-15.53 -221.84,-46.51 -65.16,-30.99 -116.46,-75.94 -153.83,-134.76 -37.35,-58.8 -56.05,-128.4 -56.05,-208.67 0,-82.69 23.08,-151.87 68.79,-207.13 45.71,-55.23 105.75,-95.81 180.47,-122.04 74.73,-26.2 156.63,-39.35 245.67,-39.35 46.9,0 88.65,4.4 125.21,13.53 36.56,9.11 66,19.88 88.25,32.17 22.27,12.32 37.77,24.26 46.51,35.39l0 -65.57c0,-21.48 -8.37,-41.77 -25.04,-60.84 -16.67,-19.05 -40.19,-34.58 -70.37,-46.5 -30.19,-11.91 -64.38,-17.89 -102.55,-17.89 -71.55,0 -145.49,10.72 -221.82,32.21 -24.65,6.36 -45.32,11.16 -62.02,14.31 -16.65,3.15 -35.77,4.77 -57.25,4.77 -52.49,0 -93.02,-12.72 -121.64,-37.77 -28.63,-25.03 -42.93,-62.8 -42.93,-113.68 0,-45.31 13.91,-81.08 41.75,-106.93 27.79,-25.82 65.98,-46.5 114.45,-62.4 42.95,-14.32 99.79,-26.27 170.56,-35.79 70.74,-9.52 144.68,-14.3 221.82,-14.3 104.14,0 199.14,15.91 285.01,47.71 85.84,31.77 154.27,77.51 204.73,137.51 50.48,60 75.52,130.84 75.52,211.91l0 75.12 0 384.01 0 314.97c-17.6,2.28 -36.69,3.43 -57.24,3.43l-129.99 0zm-564.08 -389.95c0,38.16 13.16,66 39.36,83.46 26.21,17.48 60.82,26.26 103.76,26.26 47.7,0 87.46,-10.37 119.25,-31.02 31.78,-20.64 58.04,-44.12 78.71,-70.36l0 -70.34c-10.35,-11.14 -32.21,-22.29 -65.6,-33.42 -33.37,-11.11 -69.16,-16.67 -107.33,-16.67 -112.08,0 -168.15,37.37 -168.15,112.1zm1281.56 389.95c-79.49,0 -143.9,-19.86 -193.19,-59.61 -49.29,-39.74 -80.31,-98.2 -93.01,-175.3 -7.16,-45.31 -22.28,-169.76 -45.33,-373.28 -23.03,-203.5 -34.58,-315.63 -34.58,-336.3 0,-69.16 19.49,-124.02 58.45,-164.58 38.94,-40.52 91.03,-60.8 156.21,-60.8 72.35,0 127.21,22.67 164.58,67.97 37.35,45.32 56.04,109.76 56.04,193.19l0 534.28 67.98 -399.51c14.32,-84.29 36.58,-143.14 66.39,-176.5 29.8,-33.38 69.96,-50.09 120.84,-50.09 50.88,0 91.43,16.72 121.24,50.09 29.81,33.37 51.7,92.21 65.98,176.5l68 389.96 0 -524.73c0,-83.46 19.09,-147.87 56.84,-193.19 37.76,-45.3 92.62,-67.97 164.98,-67.97 65.18,0 117.3,20.26 155.83,60.8 38.53,40.53 57.63,95.42 57.63,164.58 0,32.6 -26.64,269.12 -79.91,709.58 -9.53,77.1 -37.75,135.56 -85.05,175.3 -47.31,39.75 -110.54,59.61 -189.23,59.61 -93.03,0 -162.58,-18.28 -209.09,-54.84 -46.52,-36.56 -75.95,-96.21 -87.87,-178.88l-38.17 -260 -40.54 260c-8.73,57.24 -23.85,102.6 -45.31,136.36 -21.44,33.76 -51.3,58.45 -89.84,73.92 -38.55,15.48 -88.65,23.44 -149.87,23.44zm1733.53 13.13c-104.13,0 -201.13,-8.36 -290.97,-24.64 -89.84,-16.3 -163.4,-42.56 -220.63,-78.73 -57.23,-36.14 -85.86,-82.68 -85.86,-139.92 0,-53.25 17.1,-94.22 51.27,-122.84 34.17,-28.62 79.51,-42.92 135.97,-42.92 39.75,0 91.83,11.52 156.21,34.56 47.72,17.5 91.45,31.03 130.78,40.96 39.35,9.92 78.73,15.11 118.47,15.11 46.9,0 81.88,-3.97 104.54,-11.91 22.66,-7.92 33.81,-21.47 33.81,-40.54 0,-11.92 -7.59,-21.87 -22.68,-29.44 -15.1,-7.54 -37.39,-14.32 -66.79,-20.65 -29.42,-6.34 -73.55,-14.32 -132.37,-23.85 -160.6,-26.24 -280.66,-70.81 -360.56,-133.18 -79.87,-62.4 -120.04,-149.49 -120.04,-261.56 0,-82.69 27.44,-150.27 81.89,-202.34 54.45,-52.07 124.43,-89.47 210.28,-112.11 85.85,-22.65 178.49,-33.78 277.88,-33.78 150.25,0 275.87,15.91 376.44,47.71 100.55,31.77 150.67,89.05 150.67,171.72 0,48.48 -17.13,85.87 -51.7,112.1 -34.56,26.22 -78.71,39.36 -131.96,39.36 -45.31,0 -97.38,-8.36 -156.24,-25.04 -69.16,-19.89 -129.59,-29.82 -181.26,-29.82 -42.14,0 -74.73,2.82 -98.19,8.75 -23.43,5.94 -35.4,18.28 -35.4,36.58 0,15.89 17.93,29.02 53.68,39.75 35.78,10.71 90.65,22.24 164.58,34.18 110.52,17.49 201.15,39.36 271.91,65.58 70.72,26.23 125.61,62.84 164.17,109.72 38.53,46.88 57.64,108.52 57.64,184.84 0,87.46 -26.27,160.6 -79.11,219.42 -52.86,58.8 -123.65,102.18 -212.27,130.39 -88.65,28.21 -186.84,42.53 -294.17,42.53zm1699.82 -13.13c-70.64,0 -121.66,-13.12 -152.64,-39.33 -30.99,-26.22 -46.5,-65.2 -46.5,-116.88l0 -21.47c-11.94,31 -32.63,60.85 -62.02,89.82 -29.39,29 -68.41,53.33 -116.87,72.37 -48.48,19.05 -104.56,28.61 -168.15,28.61 -82.69,0 -156.65,-15.53 -221.81,-46.51 -65.19,-30.97 -116.5,-75.94 -153.85,-134.76 -37.35,-58.8 -56.05,-128.4 -56.05,-208.67 0,-82.69 23.08,-151.89 68.78,-207.13 45.69,-55.23 105.76,-95.81 180.47,-122.04 74.74,-26.2 156.64,-39.35 245.67,-39.35 46.9,0 88.67,4.4 125.22,13.53 36.54,9.09 66,19.88 88.24,32.17 22.26,12.32 37.77,24.26 46.5,35.39l0 -65.57c0,-21.48 -8.34,-41.75 -25.03,-60.84 -16.69,-19.05 -40.18,-34.6 -70.35,-46.5 -30.2,-11.91 -64.39,-17.89 -102.58,-17.89 -71.53,0 -145.48,10.72 -221.8,32.21 -24.66,6.36 -45.34,11.16 -62.02,14.31 -16.66,3.15 -35.78,4.77 -57.24,4.77 -52.49,0 -93.05,-12.74 -121.65,-37.77 -28.62,-25.01 -42.94,-62.8 -42.94,-113.68 0,-45.31 13.9,-81.08 41.73,-106.93 27.84,-25.84 66.01,-46.5 114.49,-62.4 42.92,-14.32 99.79,-26.27 170.52,-35.79 70.75,-9.52 144.71,-14.3 221.83,-14.3 104.13,0 199.18,15.93 285.02,47.71 85.83,31.77 154.25,77.53 204.73,137.51 50.47,59.99 75.52,130.85 75.52,211.91l0 120.2 0 338.93 0 314.97c-17.61,2.28 -36.69,3.43 -57.26,3.43l-129.98 0zm-564.08 -389.95c0,38.16 13.16,66 39.37,83.46 26.22,17.48 60.82,26.26 103.74,26.26 47.72,0 87.49,-10.37 119.27,-31.02 31.76,-20.62 58.03,-44.12 78.69,-70.36l0 -70.34c-10.34,-11.14 -32.21,-22.29 -65.58,-33.42 -33.38,-11.09 -69.16,-16.67 -107.34,-16.67 -112.09,0 -168.15,37.37 -168.15,112.1zm1206.02 948.13c-79.53,0 -138.37,-12.77 -176.9,-38.17 -38.53,-25.4 -58.05,-64.41 -58.05,-116.86 0,-50.9 18.3,-89.09 54.47,-114.5 36.17,-25.42 95.01,-43.73 176.9,-54.86 63.59,-8.73 114.47,-35.76 152.24,-80.68 37.75,-44.92 67.19,-98.99 88.63,-162.59 -70.75,-1.58 -128.41,-19.12 -173.3,-52.48 -44.89,-33.38 -78.72,-84.28 -100.98,-152.64l-207.49 -646.37c-10.34,-31.8 -15.5,-63.2 -15.5,-94.21 0,-41.33 9.12,-78.31 27.43,-110.51 18.26,-32.21 43.77,-57.29 75.92,-75.13 32.17,-17.86 68.38,-26.64 108.92,-26.64 51.68,0 93.85,8.39 126.41,25.43 32.57,17.07 58.82,42.56 78.31,75.94 19.49,33.37 36.56,77.51 51.68,132.36l144.32 511.62 141.89 -512.81c14.32,-51.67 31.46,-94.22 50.91,-127.61 19.45,-33.34 45.33,-59.24 77.91,-77.52 32.57,-18.24 74.7,-27.42 126.4,-27.42 62.02,0 111.73,19.1 148.69,57.64 36.94,38.51 55.22,89.05 55.22,151.06 0,33.39 -4.74,65.58 -14.29,96.59l-258.8 852.69c-36.56,120.86 -80.7,221.84 -132.37,303.31 -51.65,81.46 -121.65,145.9 -210.29,193.19 -88.63,47.31 -201.53,71.16 -338.26,71.16z"/>
   <path class="fil2" d="M3664.6 8668.53c-64.37,0 -115.29,-17.93 -153.16,-53.78 -37.89,-35.83 -57.03,-85.13 -57.03,-147.86 0,-26.07 3.66,-52.96 10.99,-80.66l285.96 -1031.42c21.19,-74.96 54.18,-130.76 98.59,-167.41 44.4,-36.67 101.84,-55 172.72,-55l239.52 0c70.88,0 128.73,18.33 173.12,55 44.4,36.65 76.99,92.45 98.17,167.41l285.96 1031.42c7.34,27.7 11,54.59 11,80.66 0,62.73 -18.74,112.03 -56.62,147.86 -37.88,35.85 -89.21,53.78 -153.57,53.78 -74.95,0 -131.17,-18.34 -169.06,-54.99 -37.87,-36.66 -66.39,-94.92 -85.14,-174.75l-23.21 -98.99 -400.84 0 -23.22 98.99c-18.74,79.83 -46.84,138.09 -84.73,174.75 -37.87,36.65 -94.49,54.99 -169.44,54.99zm2801.73 -1894.22l162.37 0c74.97,0 136.31,61.34 136.31,136.31l0 129.34c0,74.97 -61.34,136.31 -136.31,136.31l-162.37 0c-74.97,0 -136.31,-61.34 -136.31,-136.31l0 -129.34c0,-74.97 61.34,-136.31 136.31,-136.31zm11.21 544.41l139.95 0c81.14,0 147.53,66.37 147.53,147.52l0 1031.56c0,81.14 -66.38,147.52 -147.53,147.52l-139.95 0c-81.14,0 -147.52,-66.37 -147.52,-147.52l0 -1031.56c0,-81.14 66.37,-147.52 147.52,-147.52zm-673 -544.41l139.95 0c81.14,0 147.52,66.38 147.52,147.52l0 1575.95c0,81.14 -66.37,147.53 -147.52,147.53l-139.95 0c-81.14,0 -147.53,-66.38 -147.53,-147.53l0 -1575.95c0,-81.13 66.38,-147.52 147.53,-147.52zm-673.01 0l139.95 0c81.14,0 147.53,66.38 147.53,147.52l0 1575.95c0,81.14 -66.38,147.53 -147.53,147.53l-139.95 0c-81.14,0 -147.52,-66.38 -147.52,-147.53l0 -1575.95c0,-81.13 66.37,-147.52 147.52,-147.52zm-863.26 1239.19l-112.43 -487.6 -13.44 -65.99 -13.44 65.99 -112.43 487.6 251.74 0zm3706.14 644.02c-75.77,0 -133.62,-22 -173.54,-65.99 -39.92,-43.99 -59.88,-107.54 -59.88,-190.64l0 -375.16c0,-79.03 -10.6,-138.51 -31.77,-178.01 -21.17,-39.5 -55.4,-59.06 -102.65,-59.06 -46.44,0 -82.3,19.14 -107.95,57.43 -25.66,38.3 -38.69,89.24 -38.69,152.77l0 402.04c0,83.08 -19.97,146.65 -59.88,190.64 -39.92,43.99 -97.77,65.99 -173.54,65.99 -75.76,0 -133.2,-22 -172.71,-65.99 -39.52,-44 -59.48,-107.54 -59.48,-190.64l0 -684.34c0,-83.11 19.96,-146.65 59.48,-190.64 39.51,-44 96.95,-65.99 172.71,-65.99 59.47,0 107.95,13.45 145.42,40.32 37.47,26.88 63.15,66.81 76.99,119.77 36.66,-50.52 82.7,-90.44 137.68,-119.77 54.99,-29.32 117.74,-44 188.6,-44 134.43,0 239.95,38.72 316.51,116.51 76.58,77.79 114.88,206.54 114.88,385.76l0 442.38c0,83.08 -19.96,146.65 -59.88,190.64 -39.92,43.99 -97.35,65.99 -172.3,65.99z"/>
   <path class="fil3" d="M3902.71 6249.82c0,20.19 -5.22,38.36 -15.67,54.51 -10.37,16.14 -25.66,28.77 -45.78,37.89 -20.12,9.12 -43.98,13.65 -71.5,13.65 -33.06,0 -60.36,-6.25 -81.8,-18.64 -15.21,-8.96 -27.53,-20.98 -37.04,-35.94 -9.52,-14.98 -14.28,-29.56 -14.28,-43.75 0,-8.2 2.89,-15.21 8.58,-21.14 5.7,-5.84 12.94,-8.73 21.76,-8.73 7.17,0 13.18,2.26 18.1,6.86 4.98,4.53 9.2,11.31 12.7,20.35 4.21,10.61 8.89,19.57 13.8,26.67 4.99,7.17 11.93,13.11 20.9,17.79 9.05,4.6 20.83,6.94 35.49,6.94 20.04,0 36.41,-4.68 48.97,-14.04 12.55,-9.36 18.87,-21.06 18.87,-35.1 0,-11.15 -3.35,-20.2 -10.14,-27.06 -6.78,-6.93 -15.59,-12.24 -26.35,-15.91 -10.69,-3.67 -25.11,-7.56 -43.05,-11.69 -24.02,-5.62 -44.21,-12.25 -60.36,-19.74 -16.22,-7.56 -29.08,-17.86 -38.6,-30.88 -9.51,-13.02 -14.27,-29.16 -14.27,-48.58 0,-18.4 4.99,-34.78 15.06,-49.13 10.05,-14.27 24.64,-25.26 43.66,-32.98 19.03,-7.72 41.41,-11.54 67.14,-11.54 20.51,0 38.29,2.58 53.34,7.64 14.98,5.14 27.46,11.93 37.36,20.35 9.82,8.43 17.08,17.31 21.68,26.6 4.53,9.28 6.86,18.4 6.86,27.21 0,8.03 -2.88,15.36 -8.58,21.84 -5.69,6.47 -12.86,9.66 -21.36,9.66 -7.8,0 -13.65,-1.94 -17.7,-5.77 -4.05,-3.89 -8.42,-10.29 -13.1,-19.1 -6.16,-12.63 -13.42,-22.53 -21.99,-29.64 -8.51,-7.09 -22.23,-10.6 -41.18,-10.6 -17.46,0 -31.66,3.82 -42.34,11.54 -10.76,7.72 -16.14,16.93 -16.14,27.76 0,6.71 1.79,12.48 5.46,17.39 3.66,4.83 8.73,9.04 15.13,12.55 6.4,3.52 12.86,6.25 19.41,8.27 6.55,1.95 17.39,4.84 32.44,8.66 18.88,4.45 36.04,9.28 51.31,14.66 15.29,5.3 28.3,11.77 39.07,19.41 10.76,7.57 19.11,17.24 25.11,28.85 6,11.7 9.04,25.97 9.04,42.9zm227.32 -5.31l-122.04 0c0.16,14.19 3.04,26.67 8.58,37.51 5.54,10.83 12.94,18.95 22.15,24.4 9.2,5.54 19.41,8.27 30.49,8.27 7.49,0 14.27,-0.86 20.43,-2.65 6.23,-1.72 12.17,-4.45 17.94,-8.2 5.84,-3.74 11.15,-7.71 15.99,-12 4.91,-4.28 11.23,-10.05 19.02,-17.39 3.2,-2.73 7.72,-4.13 13.65,-4.13 6.4,0 11.62,1.8 15.59,5.31 3.9,3.44 5.93,8.42 5.93,14.81 0,5.62 -2.26,12.17 -6.63,19.74 -4.45,7.48 -11.08,14.73 -20.04,21.59 -8.89,6.94 -20.05,12.71 -33.54,17.24 -13.49,4.6 -29,6.86 -46.47,6.86 -40.08,0 -71.19,-11.47 -93.42,-34.32 -22.22,-22.85 -33.3,-53.8 -33.3,-92.95 0,-18.4 2.73,-35.56 8.2,-51.31 5.46,-15.75 13.49,-29.24 23.94,-40.55 10.52,-11.23 23.46,-19.88 38.83,-25.89 15.36,-6 32.44,-9.04 51.15,-9.04 24.4,0 45.3,5.14 62.69,15.44 17.47,10.3 30.49,23.56 39.23,39.93 8.65,16.3 13.02,32.91 13.02,49.83 0,15.67 -4.52,25.89 -13.49,30.57 -8.96,4.6 -21.59,6.94 -37.89,6.94zm-122.04 -35.56l113.08 0c-1.49,-21.29 -7.26,-37.2 -17.24,-47.8 -9.98,-10.53 -23.08,-15.83 -39.38,-15.83 -15.59,0 -28.3,5.39 -38.29,16.07 -9.98,10.76 -16.06,26.59 -18.17,47.57zm226.07 109.01l0 -270.43c0,-12.47 2.81,-21.91 8.34,-28.3 5.54,-6.4 13.03,-9.59 22.46,-9.59 9.36,0 17,3.19 22.77,9.51 5.77,6.32 8.66,15.75 8.66,28.39l0 270.43c0,12.63 -2.96,22.07 -8.81,28.39 -5.85,6.32 -13.41,9.52 -22.62,9.52 -9.12,0 -16.53,-3.27 -22.22,-9.83 -5.7,-6.55 -8.58,-15.91 -8.58,-28.07zm126.8 0l0 -270.43c0,-12.47 2.81,-21.91 8.34,-28.3 5.54,-6.4 13.03,-9.59 22.46,-9.59 9.36,0 17,3.19 22.77,9.51 5.77,6.32 8.66,15.75 8.66,28.39l0 270.43c0,12.63 -2.96,22.07 -8.81,28.39 -5.85,6.32 -13.41,9.52 -22.62,9.52 -9.12,0 -16.53,-3.27 -22.22,-9.83 -5.7,-6.55 -8.58,-15.91 -8.58,-28.07zm360.27 -88.81c0,18.63 -2.89,35.71 -8.66,51.38 -5.84,15.67 -14.19,29.16 -25.18,40.39 -10.91,11.31 -24.1,19.89 -39.3,25.89 -15.21,6.01 -32.37,9.05 -51.39,9.05 -18.95,0 -35.94,-3.04 -51,-9.12 -15.05,-6.08 -28.14,-14.81 -39.22,-26.2 -10.99,-11.31 -19.42,-24.72 -25.11,-40.16 -5.69,-15.52 -8.58,-32.6 -8.58,-51.31 0,-18.87 2.89,-36.19 8.66,-51.86 5.84,-15.67 14.11,-29.08 24.95,-40.24 10.84,-11.07 23.94,-19.64 39.3,-25.65 15.37,-6.01 32.37,-9.05 51,-9.05 18.88,0 36.02,3.04 51.39,9.12 15.36,6.08 28.54,14.82 39.53,26.12 10.99,11.24 19.34,24.65 25.03,40.24 5.69,15.52 8.58,32.68 8.58,51.39zm-62.69 0c0,-25.42 -5.62,-45.15 -16.76,-59.35 -11.24,-14.11 -26.2,-21.21 -45.08,-21.21 -12.24,0 -22.93,3.12 -32.21,9.44 -9.28,6.32 -16.45,15.67 -21.44,27.99 -5.07,12.33 -7.57,26.75 -7.57,43.13 0,16.3 2.5,30.57 7.42,42.73 4.98,12.16 12,21.51 21.21,27.99 9.2,6.47 20.11,9.67 32.59,9.67 18.88,0 33.84,-7.09 45.08,-21.37 11.15,-14.19 16.76,-33.91 16.76,-59.02zm324.15 -22.07l-23.78 0 0 107.46c0,14.19 -3.12,24.56 -9.36,31.27 -6.25,6.71 -14.43,10.06 -24.41,10.06 -10.83,0 -19.26,-3.52 -25.18,-10.53 -5.93,-7.02 -8.89,-17.24 -8.89,-30.8l0 -257.72c0,-14.58 3.27,-25.19 9.82,-31.74 6.56,-6.55 17.16,-9.83 31.74,-9.83l110.35 0c15.2,0 28.22,0.63 39.07,1.95 10.83,1.33 20.58,3.9 29.24,7.88 10.52,4.45 19.81,10.76 27.91,18.95 8.03,8.27 14.2,17.86 18.33,28.7 4.2,10.91 6.32,22.45 6.32,34.7 0,24.95 -7.02,44.92 -21.14,59.88 -14.11,14.9 -35.48,25.51 -64.1,31.74 12.02,6.4 23.56,15.83 34.55,28.3 10.91,12.48 20.74,25.82 29.32,39.85 8.58,14.11 15.29,26.74 20.12,38.13 4.76,11.31 7.17,19.11 7.17,23.39 0,4.37 -1.4,8.73 -4.21,13.11 -2.8,4.37 -6.62,7.79 -11.54,10.29 -4.83,2.5 -10.52,3.75 -16.92,3.75 -7.57,0 -13.97,-1.8 -19.19,-5.39 -5.14,-3.59 -9.59,-8.1 -13.33,-13.57 -3.75,-5.46 -8.81,-13.56 -15.21,-24.17l-27.21 -45.23c-9.75,-16.53 -18.48,-29.16 -26.12,-37.81 -7.72,-8.74 -15.52,-14.66 -23.47,-17.86 -7.87,-3.2 -17.86,-4.76 -29.87,-4.76zm38.83 -140.84l-62.61 0 0 92.18 60.74 0c16.3,0 30.02,-1.4 41.18,-4.21 11.08,-2.81 19.57,-7.64 25.41,-14.43 5.85,-6.78 8.81,-16.14 8.81,-27.99 0,-9.36 -2.33,-17.54 -7.09,-24.65 -4.68,-7.09 -11.23,-12.4 -19.64,-15.91 -7.88,-3.35 -23.47,-4.99 -46.8,-4.99zm364.64 178.27l-122.04 0c0.16,14.19 3.04,26.67 8.58,37.51 5.54,10.83 12.94,18.95 22.15,24.4 9.2,5.54 19.41,8.27 30.49,8.27 7.49,0 14.27,-0.86 20.43,-2.65 6.23,-1.72 12.17,-4.45 17.94,-8.2 5.84,-3.74 11.15,-7.71 15.99,-12 4.91,-4.28 11.23,-10.05 19.02,-17.39 3.2,-2.73 7.72,-4.13 13.65,-4.13 6.4,0 11.62,1.8 15.59,5.31 3.9,3.44 5.93,8.42 5.93,14.81 0,5.62 -2.26,12.17 -6.63,19.74 -4.45,7.48 -11.08,14.73 -20.04,21.59 -8.89,6.94 -20.05,12.71 -33.54,17.24 -13.49,4.6 -29,6.86 -46.47,6.86 -40.08,0 -71.19,-11.47 -93.42,-34.32 -22.22,-22.85 -33.3,-53.8 -33.3,-92.95 0,-18.4 2.73,-35.56 8.2,-51.31 5.46,-15.75 13.49,-29.24 23.94,-40.55 10.52,-11.23 23.46,-19.88 38.83,-25.89 15.36,-6 32.44,-9.04 51.15,-9.04 24.4,0 45.3,5.14 62.69,15.44 17.47,10.3 30.49,23.56 39.23,39.93 8.65,16.3 13.02,32.91 13.02,49.83 0,15.67 -4.52,25.89 -13.49,30.57 -8.96,4.6 -21.59,6.94 -37.89,6.94zm-122.04 -35.56l113.08 0c-1.49,-21.29 -7.26,-37.2 -17.24,-47.8 -9.98,-10.53 -23.08,-15.83 -39.38,-15.83 -15.59,0 -28.3,5.39 -38.29,16.07 -9.98,10.76 -16.06,26.59 -18.17,47.57zm449.17 -60.82l0 181.15c0,20.75 -2.18,38.52 -6.63,53.42 -4.45,14.98 -11.46,27.29 -21.21,37.05 -9.74,9.74 -22.53,17 -38.29,21.68 -15.74,4.76 -35.4,7.09 -58.79,7.09 -21.52,0 -40.7,-3.04 -57.63,-9.04 -16.85,-6 -29.86,-13.8 -39.07,-23.31 -9.12,-9.52 -13.64,-19.26 -13.64,-29.33 0,-7.64 2.57,-13.8 7.72,-18.63 5.22,-4.76 11.46,-7.17 18.79,-7.17 9.12,0 17.16,3.97 24.02,12.09 3.35,4.05 6.86,8.19 10.37,12.4 3.59,4.13 7.57,7.72 11.85,10.68 4.38,2.96 9.6,5.22 15.67,6.63 6.08,1.49 13.11,2.18 20.98,2.18 16.15,0 28.62,-2.26 37.51,-6.7 8.97,-4.53 15.21,-10.76 18.71,-18.88 3.59,-8.03 5.69,-16.68 6.32,-25.89 0.63,-9.2 1.09,-23.94 1.32,-44.37 -9.59,13.42 -20.67,23.63 -33.22,30.57 -12.55,7.02 -27.53,10.53 -44.84,10.53 -20.9,0 -39.15,-5.31 -54.74,-15.99 -15.6,-10.68 -27.61,-25.58 -35.95,-44.84 -8.35,-19.18 -12.55,-41.33 -12.55,-66.44 0,-18.8 2.57,-35.71 7.64,-50.77 5.14,-15.05 12.4,-27.83 21.84,-38.13 9.43,-10.37 20.27,-18.17 32.67,-23.47 12.32,-5.22 25.89,-7.87 40.63,-7.87 17.62,0 32.98,3.43 45.93,10.22 12.94,6.78 24.95,17.46 36.02,31.97l0 -8.51c0,-10.83 2.73,-19.26 8.03,-25.18 5.3,-6 12.17,-8.97 20.58,-8.97 12,0 20.04,3.98 24.02,11.85 3.97,7.88 5.92,19.19 5.92,34zm-180.6 79.07c0,25.26 5.54,44.37 16.53,57.32 11.08,12.94 25.26,19.41 42.82,19.41 10.29,0 20.12,-2.81 29.32,-8.35 9.21,-5.53 16.69,-13.96 22.46,-25.1 5.77,-11.24 8.65,-24.8 8.65,-40.78 0,-25.42 -5.61,-45.23 -16.76,-59.42 -11.15,-14.12 -25.89,-21.21 -44.14,-21.21 -17.78,0 -32.04,6.78 -42.81,20.35 -10.68,13.56 -16.07,32.82 -16.07,57.78zm306 -89.52l0 180.29c0,12.48 -2.96,21.92 -8.89,28.3 -5.92,6.4 -13.41,9.6 -22.53,9.6 -9.12,0 -16.53,-3.27 -22.22,-9.83 -5.7,-6.55 -8.58,-15.91 -8.58,-28.07l0 -178.42c0,-12.4 2.88,-21.68 8.58,-27.92 5.69,-6.23 13.1,-9.36 22.22,-9.36 9.12,0 16.61,3.12 22.53,9.36 5.93,6.25 8.89,14.98 8.89,26.05zm-30.8 -64.41c-8.66,0 -16.07,-2.66 -22.23,-7.95 -6.15,-5.31 -9.2,-12.87 -9.2,-22.62 0,-8.73 3.11,-15.99 9.44,-21.68 6.32,-5.7 13.64,-8.58 21.99,-8.58 8.1,0 15.2,2.57 21.44,7.72 6.23,5.22 9.36,12.7 9.36,22.53 0,9.59 -3.04,17.08 -9.12,22.45 -6.08,5.39 -13.26,8.11 -21.68,8.11zm328.84 155.88c0,18.63 -2.89,35.71 -8.66,51.38 -5.84,15.67 -14.19,29.16 -25.18,40.39 -10.91,11.31 -24.1,19.89 -39.3,25.89 -15.21,6.01 -32.37,9.05 -51.39,9.05 -18.95,0 -35.94,-3.04 -51,-9.12 -15.05,-6.08 -28.14,-14.81 -39.22,-26.2 -10.99,-11.31 -19.42,-24.72 -25.11,-40.16 -5.69,-15.52 -8.58,-32.6 -8.58,-51.31 0,-18.87 2.89,-36.19 8.66,-51.86 5.84,-15.67 14.11,-29.08 24.95,-40.24 10.84,-11.07 23.94,-19.64 39.3,-25.65 15.37,-6.01 32.37,-9.05 51,-9.05 18.88,0 36.02,3.04 51.39,9.12 15.36,6.08 28.54,14.82 39.53,26.12 10.99,11.24 19.34,24.65 25.03,40.24 5.69,15.52 8.58,32.68 8.58,51.39zm-62.69 0c0,-25.42 -5.62,-45.15 -16.76,-59.35 -11.24,-14.11 -26.2,-21.21 -45.08,-21.21 -12.24,0 -22.93,3.12 -32.21,9.44 -9.28,6.32 -16.45,15.67 -21.44,27.99 -5.07,12.33 -7.57,26.75 -7.57,43.13 0,16.3 2.5,30.57 7.42,42.73 4.98,12.16 12,21.51 21.21,27.99 9.2,6.47 20.11,9.67 32.59,9.67 18.88,0 33.84,-7.09 45.08,-21.37 11.15,-14.19 16.76,-33.91 16.76,-59.02zm168.28 -92.41l0 7.57c10.99,-14.5 23,-25.11 36.02,-31.89 13.03,-6.79 27.99,-10.15 44.92,-10.15 16.45,0 31.11,3.59 44.14,10.76 12.94,7.1 22.61,17.24 29,30.34 4.13,7.64 6.79,15.83 8.03,24.72 1.17,8.81 1.8,20.05 1.8,33.77l0 116.11c0,12.48 -2.89,21.92 -8.58,28.3 -5.7,6.4 -13.18,9.6 -22.3,9.6 -9.29,0 -16.85,-3.27 -22.7,-9.83 -5.77,-6.55 -8.65,-15.91 -8.65,-28.07l0 -104.02c0,-20.51 -2.89,-36.26 -8.58,-47.18 -5.7,-10.83 -17.08,-16.3 -34.16,-16.3 -11.08,0 -21.21,3.28 -30.42,9.91 -9.12,6.62 -15.82,15.74 -20.04,27.36 -3.04,9.28 -4.6,26.6 -4.6,52.09l0 78.13c0,12.63 -2.97,22.07 -8.81,28.39 -5.85,6.32 -13.42,9.52 -22.62,9.52 -8.97,0 -16.38,-3.27 -22.15,-9.83 -5.77,-6.55 -8.65,-15.91 -8.65,-28.07l0 -180.29c0,-11.85 2.57,-20.75 7.72,-26.6 5.22,-5.84 12.24,-8.81 21.21,-8.81 5.46,0 10.45,1.33 14.81,3.9 4.45,2.58 7.95,6.48 10.6,11.62 2.66,5.14 3.98,11.54 3.98,18.95zm383.73 184.12c-15.13,11.69 -29.71,20.43 -43.75,26.27 -14.11,5.85 -29.94,8.74 -47.4,8.74 -15.99,0 -30.1,-3.2 -42.19,-9.52 -12.09,-6.32 -21.44,-14.81 -28,-25.66 -6.55,-10.83 -9.82,-22.53 -9.82,-35.17 0,-17.08 5.39,-31.58 16.22,-43.59 10.84,-12.09 25.74,-20.12 44.69,-24.25 3.9,-0.93 13.72,-2.96 29.4,-6.15 15.67,-3.2 29.16,-6.08 40.32,-8.81 11.15,-2.66 23.31,-5.85 36.41,-9.67 -0.78,-16.45 -4.05,-28.54 -9.9,-36.19 -5.92,-7.72 -18.01,-11.54 -36.49,-11.54 -15.83,0 -27.76,2.18 -35.71,6.63 -8.03,4.37 -14.9,10.99 -20.59,19.89 -5.69,8.81 -9.74,14.58 -12.09,17.46 -2.42,2.81 -7.48,4.21 -15.2,4.21 -7.02,0 -13.11,-2.26 -18.17,-6.78 -5.07,-4.45 -7.65,-10.22 -7.65,-17.24 0,-10.99 3.9,-21.68 11.62,-32.04 7.8,-10.38 19.89,-18.88 36.34,-25.58 16.45,-6.71 36.96,-10.06 61.53,-10.06 27.36,0 48.97,3.27 64.64,9.75 15.67,6.47 26.75,16.68 33.22,30.72 6.48,14.04 9.75,32.6 9.75,55.76 0,14.66 -0.08,27.05 -0.16,37.27 -0.07,10.22 -0.15,21.6 -0.3,34.08 0,11.69 1.95,23.94 5.84,36.65 3.9,12.63 5.77,20.82 5.77,24.48 0,6.39 -2.96,12.24 -8.96,17.46 -6.08,5.22 -12.86,7.88 -20.51,7.88 -6.39,0 -12.7,-2.97 -18.95,-8.97 -6.23,-6 -12.86,-14.66 -19.89,-26.04zm-4.13 -90.38c-9.11,3.35 -22.37,6.94 -39.84,10.6 -17.39,3.75 -29.48,6.56 -36.18,8.27 -6.71,1.8 -13.11,5.22 -19.19,10.3 -6.08,5.14 -9.12,12.25 -9.12,21.44 0,9.44 3.59,17.47 10.76,24.1 7.1,6.63 16.46,9.97 28.07,9.97 12.33,0 23.71,-2.73 34.08,-8.1 10.45,-5.46 18.09,-12.4 23,-20.98 5.62,-9.44 8.42,-25.03 8.42,-46.71l0 -8.89zm124.55 87.49l0 -270.43c0,-12.47 2.81,-21.91 8.34,-28.3 5.54,-6.4 13.03,-9.59 22.46,-9.59 9.36,0 17,3.19 22.77,9.51 5.77,6.32 8.66,15.75 8.66,28.39l0 270.43c0,12.63 -2.96,22.07 -8.81,28.39 -5.85,6.32 -13.41,9.52 -22.62,9.52 -9.12,0 -16.53,-3.27 -22.22,-9.83 -5.7,-6.55 -8.58,-15.91 -8.58,-28.07z"/>
   <g>
    <path class="fil3" d="M3631.66 11392.13l-52.79 0 0 80.53c0,11.53 -2.71,20.2 -8.14,26.16 -5.43,5.96 -12.32,8.94 -20.53,8.94 -8.67,0 -15.69,-2.91 -20.99,-8.81 -5.31,-5.89 -7.95,-14.57 -7.95,-25.89l0 -219.29c0,-12.65 2.92,-21.72 8.74,-27.15 5.83,-5.43 15.04,-8.14 27.76,-8.14l73.91 0c21.86,0 38.67,1.66 50.47,5.03 11.65,3.24 21.73,8.61 30.2,16.1 8.47,7.55 14.9,16.68 19.27,27.55 4.44,10.86 6.62,23.12 6.62,36.69 0,29.01 -8.94,50.93 -26.76,65.9 -17.88,14.91 -44.43,22.39 -79.8,22.39zm-13.98 -130.35l-38.81 0 0 87.03 38.81 0c13.57,0 24.97,-1.46 34.1,-4.3 9.07,-2.85 16.03,-7.48 20.87,-13.98 4.77,-6.42 7.15,-14.97 7.15,-25.42 0,-12.59 -3.71,-22.79 -11.07,-30.67 -8.28,-8.41 -25.3,-12.65 -51.06,-12.65zm348.16 138.36c0,15.82 -2.45,30.33 -7.35,43.64 -4.97,13.31 -12.06,24.77 -21.39,34.31 -9.28,9.6 -20.47,16.89 -33.39,21.99 -12.91,5.09 -27.49,7.68 -43.64,7.68 -16.09,0 -30.53,-2.59 -43.31,-7.75 -12.78,-5.16 -23.91,-12.58 -33.32,-22.25 -9.34,-9.6 -16.49,-21 -21.32,-34.1 -4.84,-13.19 -7.29,-27.69 -7.29,-43.58 0,-16.03 2.45,-30.73 7.35,-44.04 4.97,-13.32 11.99,-24.71 21.2,-34.18 9.21,-9.41 20.33,-16.69 33.38,-21.79 13.05,-5.1 27.49,-7.69 43.31,-7.69 16.03,0 30.6,2.59 43.64,7.75 13.06,5.16 24.24,12.58 33.58,22.19 9.34,9.53 16.43,20.93 21.26,34.18 4.84,13.18 7.29,27.75 7.29,43.64zm-53.24 0c0,-21.59 -4.77,-38.35 -14.24,-50.4 -9.54,-11.98 -22.26,-18.02 -38.29,-18.02 -10.4,0 -19.47,2.66 -27.35,8.01 -7.87,5.37 -13.97,13.32 -18.21,23.78 -4.3,10.47 -6.43,22.72 -6.43,36.63 0,13.83 2.12,25.96 6.3,36.29 4.23,10.34 10.2,18.28 18.02,23.78 7.81,5.5 17.09,8.22 27.68,8.22 16.03,0 28.75,-6.03 38.29,-18.15 9.47,-12.06 14.24,-28.81 14.24,-50.13zm147.42 31.19l0 44.24c0,10.72 -2.52,18.74 -7.55,24.1 -5.03,5.37 -11.39,8.08 -19.14,8.08 -7.62,0 -13.9,-2.72 -18.81,-8.14 -4.9,-5.44 -7.36,-13.45 -7.36,-24.04l0 -147.5c0,-23.78 8.61,-35.7 25.77,-35.7 8.74,0 15.1,2.79 18.94,8.35 3.91,5.57 6.02,13.84 6.43,24.71 6.29,-10.86 12.78,-19.14 19.47,-24.71 6.69,-5.56 15.56,-8.35 26.69,-8.35 11.13,0 21.92,2.79 32.39,8.35 10.46,5.57 15.69,12.99 15.69,22.19 0,6.49 -2.18,11.78 -6.69,16.03 -4.44,4.23 -9.27,6.29 -14.44,6.29 -1.92,0 -6.62,-1.19 -14.04,-3.58 -7.49,-2.37 -14.05,-3.57 -19.74,-3.57 -7.75,0 -14.05,2.05 -19.01,6.09 -4.9,4.1 -8.74,10.13 -11.46,18.14 -2.72,8.01 -4.57,17.55 -5.63,28.62 -0.99,11.06 -1.53,24.51 -1.53,40.4zm220.94 44.24l0 -229.69c0,-10.59 2.38,-18.6 7.09,-24.04 4.7,-5.43 11.06,-8.14 19.07,-8.14 7.95,0 14.44,2.72 19.34,8.08 4.9,5.37 7.35,13.38 7.35,24.1l0 229.69c0,10.72 -2.52,18.74 -7.48,24.1 -4.97,5.37 -11.39,8.08 -19.21,8.08 -7.75,0 -14.04,-2.78 -18.88,-8.35 -4.83,-5.56 -7.29,-13.51 -7.29,-23.84zm241.54 2.45c-12.84,9.93 -25.23,17.35 -37.16,22.32 -11.98,4.96 -25.43,7.42 -40.27,7.42 -13.57,0 -25.56,-2.72 -35.82,-8.08 -10.27,-5.37 -18.22,-12.58 -23.78,-21.79 -5.57,-9.21 -8.35,-19.14 -8.35,-29.87 0,-14.5 4.57,-26.82 13.77,-37.03 9.21,-10.26 21.86,-17.08 37.96,-20.59 3.3,-0.79 11.65,-2.52 24.96,-5.23 13.32,-2.71 24.78,-5.16 34.25,-7.48 9.47,-2.25 19.81,-4.97 30.93,-8.22 -0.67,-13.98 -3.45,-24.24 -8.42,-30.73 -5.03,-6.56 -15.3,-9.8 -30.99,-9.8 -13.44,0 -23.58,1.86 -30.34,5.63 -6.82,3.71 -12.65,9.34 -17.48,16.89 -4.83,7.49 -8.28,12.39 -10.27,14.84 -2.05,2.37 -6.36,3.57 -12.91,3.57 -5.96,0 -11.13,-1.92 -15.43,-5.76 -4.3,-3.77 -6.49,-8.67 -6.49,-14.63 0,-9.34 3.3,-18.41 9.86,-27.22 6.63,-8.81 16.9,-16.03 30.86,-21.73 13.98,-5.69 31.4,-8.54 52.26,-8.54 23.24,0 41.58,2.78 54.9,8.28 13.31,5.5 22.72,14.18 28.21,26.09 5.5,11.92 8.28,27.69 8.28,47.36 0,12.45 -0.06,22.98 -0.13,31.65 -0.07,8.68 -0.13,18.35 -0.26,28.95 0,9.93 1.66,20.33 4.96,31.12 3.31,10.73 4.9,17.68 4.9,20.8 0,5.43 -2.52,10.4 -7.61,14.83 -5.17,4.44 -10.93,6.69 -17.42,6.69 -5.44,0 -10.79,-2.52 -16.1,-7.62 -5.3,-5.09 -10.92,-12.45 -16.89,-22.12zm-3.51 -76.76c-7.75,2.85 -19.01,5.89 -33.84,9 -14.77,3.18 -25.04,5.57 -30.74,7.02 -5.69,1.53 -11.13,4.44 -16.29,8.74 -5.16,4.38 -7.75,10.4 -7.75,18.22 0,8.01 3.05,14.83 9.15,20.46 6.02,5.63 13.98,8.48 23.84,8.48 10.47,0 20.14,-2.32 28.94,-6.89 8.88,-4.64 15.37,-10.53 19.54,-17.82 4.77,-8.01 7.15,-21.26 7.15,-39.67l0 -7.55zm253.98 -79.07l0 6.42c9.93,-12.32 20.33,-21.39 31.06,-27.15 10.73,-5.76 22.85,-8.67 36.43,-8.67 16.36,0 31.33,4.17 45.03,12.58 13.71,8.41 24.58,20.73 32.52,36.88 7.95,16.17 11.92,35.31 11.92,57.43 0,16.29 -2.31,31.26 -6.88,44.9 -4.58,13.64 -10.93,25.1 -18.95,34.38 -8.01,9.27 -17.48,16.36 -28.42,21.32 -10.92,4.97 -22.65,7.49 -35.23,7.49 -15.11,0 -27.82,-3.05 -38.09,-9.15 -10.27,-6.02 -20.07,-14.97 -29.41,-26.75l0 79.61c0,23.31 -8.48,34.96 -25.43,34.96 -9.93,0 -16.55,-2.98 -19.8,-9 -3.24,-6.03 -4.84,-14.77 -4.84,-26.29l0 -228.69c0,-10.06 2.19,-17.62 6.63,-22.59 4.37,-4.97 10.4,-7.49 18.01,-7.49 7.49,0 13.65,2.59 18.35,7.69 4.7,5.16 7.08,12.51 7.08,22.12zm103.72 77.02c0,-13.98 -2.12,-25.96 -6.43,-35.96 -4.23,-10 -10.14,-17.74 -17.68,-23.11 -7.62,-5.37 -15.96,-8.01 -25.1,-8.01 -14.63,0 -26.95,5.76 -36.95,17.22 -10,11.52 -15.04,28.48 -15.04,50.8 0,21.06 4.97,37.48 14.91,49.14 10,11.72 22.32,17.55 37.09,17.55 8.74,0 16.89,-2.59 24.37,-7.69 7.49,-5.09 13.51,-12.71 18.08,-22.91 4.51,-10.27 6.76,-22.59 6.76,-37.03zm148.22 32.12l0 44.24c0,10.72 -2.52,18.74 -7.55,24.1 -5.03,5.37 -11.39,8.08 -19.14,8.08 -7.62,0 -13.9,-2.72 -18.81,-8.14 -4.9,-5.44 -7.36,-13.45 -7.36,-24.04l0 -147.5c0,-23.78 8.61,-35.7 25.77,-35.7 8.74,0 15.1,2.79 18.94,8.35 3.91,5.57 6.02,13.84 6.43,24.71 6.29,-10.86 12.78,-19.14 19.47,-24.71 6.69,-5.56 15.56,-8.35 26.69,-8.35 11.13,0 21.92,2.79 32.39,8.35 10.46,5.57 15.69,12.99 15.69,22.19 0,6.49 -2.18,11.78 -6.69,16.03 -4.44,4.23 -9.27,6.29 -14.44,6.29 -1.92,0 -6.62,-1.19 -14.04,-3.58 -7.49,-2.37 -14.05,-3.57 -19.74,-3.57 -7.75,0 -14.05,2.05 -19.01,6.09 -4.9,4.1 -8.74,10.13 -11.46,18.14 -2.72,8.01 -4.57,17.55 -5.63,28.62 -0.99,11.06 -1.53,24.51 -1.53,40.4zm174.45 -108.88l0 153.12c0,10.59 -2.52,18.6 -7.55,24.04 -5.03,5.43 -11.39,8.14 -19.14,8.14 -7.75,0 -14.04,-2.78 -18.88,-8.35 -4.83,-5.56 -7.29,-13.51 -7.29,-23.84l0 -151.54c0,-10.53 2.46,-18.41 7.29,-23.71 4.84,-5.31 11.13,-7.95 18.88,-7.95 7.75,0 14.11,2.65 19.14,7.95 5.03,5.3 7.55,12.71 7.55,22.12zm-26.15 -54.71c-7.36,0 -13.65,-2.25 -18.88,-6.75 -5.23,-4.51 -7.82,-10.93 -7.82,-19.21 0,-7.42 2.66,-13.58 8.01,-18.41 5.37,-4.83 11.59,-7.29 18.68,-7.29 6.88,0 12.91,2.18 18.21,6.56 5.3,4.44 7.94,10.79 7.94,19.14 0,8.14 -2.58,14.5 -7.74,19.08 -5.17,4.57 -11.27,6.88 -18.41,6.88zm257.04 136.24l0 70.4c0,11.13 -2.52,19.47 -7.55,25.03 -5.03,5.57 -11.72,8.35 -19.94,8.35 -8.01,0 -14.5,-2.78 -19.47,-8.35 -4.96,-5.56 -7.48,-13.9 -7.48,-25.03l0 -84.38c0,-13.38 -0.46,-23.71 -1.39,-31.06 -0.86,-7.35 -3.31,-13.44 -7.36,-18.15 -4.03,-4.7 -10.33,-7.08 -19.07,-7.08 -17.35,0 -28.75,5.96 -34.25,17.89 -5.5,11.85 -8.28,28.94 -8.28,51.19l0 71.6c0,10.99 -2.52,19.33 -7.48,24.97 -4.97,5.63 -11.53,8.41 -19.6,8.41 -8.01,0 -14.57,-2.78 -19.67,-8.41 -5.1,-5.64 -7.68,-13.98 -7.68,-24.97l0 -151.54c0,-9.93 2.31,-17.55 6.88,-22.72 4.58,-5.16 10.6,-7.75 18.09,-7.75 7.29,0 13.31,2.46 18.14,7.29 4.84,4.84 7.29,11.53 7.29,20.07l0 5.03c9.15,-10.99 19.01,-19.07 29.48,-24.24 10.46,-5.16 22.12,-7.74 34.9,-7.74 13.38,0 24.77,2.65 34.37,7.94 9.61,5.3 17.49,13.31 23.65,24.04 8.94,-10.86 18.54,-18.88 28.75,-24.1 10.2,-5.23 21.52,-7.88 33.97,-7.88 14.5,0 26.95,2.84 37.42,8.54 10.46,5.7 18.34,13.84 23.5,24.43 4.51,9.54 6.76,24.65 6.76,45.17l0 103.46c0,11.13 -2.52,19.47 -7.55,25.03 -5.03,5.57 -11.72,8.35 -19.94,8.35 -8.01,0 -14.57,-2.78 -19.66,-8.41 -5.1,-5.64 -7.69,-13.98 -7.69,-24.97l0 -89.08c0,-11.4 -0.46,-20.47 -1.46,-27.35 -0.99,-6.82 -3.58,-12.59 -7.88,-17.29 -4.23,-4.64 -10.73,-6.95 -19.4,-6.95 -7.02,0 -13.64,2.05 -19.94,6.22 -6.22,4.1 -11.13,9.67 -14.63,16.69 -3.91,8.87 -5.83,24.7 -5.83,47.35zm323.33 9.21l-103.65 0c0.13,12.06 2.59,22.65 7.29,31.85 4.71,9.21 10.99,16.1 18.82,20.74 7.81,4.7 16.49,7.01 25.89,7.01 6.36,0 12.13,-0.73 17.35,-2.24 5.31,-1.47 10.34,-3.78 15.24,-6.96 4.96,-3.17 9.47,-6.55 13.57,-10.2 4.17,-3.64 9.54,-8.54 16.17,-14.76 2.71,-2.32 6.55,-3.52 11.58,-3.52 5.44,0 9.87,1.53 13.25,4.51 3.31,2.91 5.03,7.15 5.03,12.58 0,4.77 -1.92,10.34 -5.63,16.75 -3.77,6.36 -9.4,12.52 -17.02,18.35 -7.55,5.89 -17.02,10.79 -28.48,14.63 -11.46,3.91 -24.64,5.83 -39.47,5.83 -34.04,0 -60.47,-9.74 -79.35,-29.14 -18.88,-19.4 -28.28,-45.7 -28.28,-78.94 0,-15.63 2.32,-30.2 6.95,-43.58 4.64,-13.38 11.46,-24.84 20.34,-34.44 8.93,-9.54 19.93,-16.89 32.97,-21.99 13.06,-5.09 27.56,-7.68 43.45,-7.68 20.73,0 38.48,4.38 53.24,13.12 14.83,8.74 25.9,20 33.32,33.9 7.35,13.84 11.06,27.95 11.06,42.32 0,13.32 -3.84,21.99 -11.45,25.96 -7.62,3.91 -18.35,5.9 -32.2,5.9zm-103.65 -30.2l96.04 0c-1.26,-18.08 -6.16,-31.59 -14.64,-40.59 -8.48,-8.94 -19.6,-13.45 -33.45,-13.45 -13.24,0 -24.04,4.57 -32.52,13.64 -8.48,9.15 -13.64,22.59 -15.43,40.4zm244.45 48.35l0 44.24c0,10.72 -2.52,18.74 -7.55,24.1 -5.03,5.37 -11.39,8.08 -19.14,8.08 -7.62,0 -13.9,-2.72 -18.81,-8.14 -4.9,-5.44 -7.36,-13.45 -7.36,-24.04l0 -147.5c0,-23.78 8.61,-35.7 25.77,-35.7 8.74,0 15.1,2.79 18.94,8.35 3.91,5.57 6.02,13.84 6.43,24.71 6.29,-10.86 12.78,-19.14 19.47,-24.71 6.69,-5.56 15.56,-8.35 26.69,-8.35 11.13,0 21.92,2.79 32.39,8.35 10.46,5.57 15.69,12.99 15.69,22.19 0,6.49 -2.18,11.78 -6.69,16.03 -4.44,4.23 -9.27,6.29 -14.44,6.29 -1.92,0 -6.62,-1.19 -14.04,-3.58 -7.49,-2.37 -14.05,-3.57 -19.74,-3.57 -7.75,0 -14.05,2.05 -19.01,6.09 -4.9,4.1 -8.74,10.13 -11.46,18.14 -2.72,8.01 -4.57,17.55 -5.63,28.62 -0.99,11.06 -1.53,24.51 -1.53,40.4zm245.58 46.69c-12.84,9.93 -25.23,17.35 -37.16,22.32 -11.98,4.96 -25.43,7.42 -40.27,7.42 -13.57,0 -25.56,-2.72 -35.82,-8.08 -10.27,-5.37 -18.22,-12.58 -23.78,-21.79 -5.57,-9.21 -8.35,-19.14 -8.35,-29.87 0,-14.5 4.57,-26.82 13.77,-37.03 9.21,-10.26 21.86,-17.08 37.96,-20.59 3.3,-0.79 11.65,-2.52 24.96,-5.23 13.32,-2.71 24.78,-5.16 34.25,-7.48 9.47,-2.25 19.81,-4.97 30.93,-8.22 -0.67,-13.98 -3.45,-24.24 -8.42,-30.73 -5.03,-6.56 -15.3,-9.8 -30.99,-9.8 -13.44,0 -23.58,1.86 -30.34,5.63 -6.82,3.71 -12.65,9.34 -17.48,16.89 -4.83,7.49 -8.28,12.39 -10.27,14.84 -2.05,2.37 -6.36,3.57 -12.91,3.57 -5.96,0 -11.13,-1.92 -15.43,-5.76 -4.3,-3.77 -6.49,-8.67 -6.49,-14.63 0,-9.34 3.3,-18.41 9.86,-27.22 6.63,-8.81 16.9,-16.03 30.86,-21.73 13.98,-5.69 31.4,-8.54 52.26,-8.54 23.24,0 41.58,2.78 54.9,8.28 13.31,5.5 22.72,14.18 28.21,26.09 5.5,11.92 8.28,27.69 8.28,47.36 0,12.45 -0.06,22.98 -0.13,31.65 -0.07,8.68 -0.13,18.35 -0.26,28.95 0,9.93 1.66,20.33 4.96,31.12 3.31,10.73 4.9,17.68 4.9,20.8 0,5.43 -2.52,10.4 -7.61,14.83 -5.17,4.44 -10.93,6.69 -17.42,6.69 -5.44,0 -10.79,-2.52 -16.1,-7.62 -5.3,-5.09 -10.92,-12.45 -16.89,-22.12zm-3.51 -76.76c-7.75,2.85 -19.01,5.89 -33.84,9 -14.77,3.18 -25.04,5.57 -30.74,7.02 -5.69,1.53 -11.13,4.44 -16.29,8.74 -5.16,4.38 -7.75,10.4 -7.75,18.22 0,8.01 3.05,14.83 9.15,20.46 6.02,5.63 13.98,8.48 23.84,8.48 10.47,0 20.14,-2.32 28.94,-6.89 8.88,-4.64 15.37,-10.53 19.54,-17.82 4.77,-8.01 7.15,-21.26 7.15,-39.67l0 -7.55zm257.95 -78.81l0 153.12c0,10.59 -2.52,18.6 -7.55,24.04 -5.03,5.43 -11.39,8.14 -19.14,8.14 -7.75,0 -14.04,-2.78 -18.88,-8.35 -4.83,-5.56 -7.29,-13.51 -7.29,-23.84l0 -151.54c0,-10.53 2.46,-18.41 7.29,-23.71 4.84,-5.31 11.13,-7.95 18.88,-7.95 7.75,0 14.11,2.65 19.14,7.95 5.03,5.3 7.55,12.71 7.55,22.12zm-26.15 -54.71c-7.36,0 -13.65,-2.25 -18.88,-6.75 -5.23,-4.51 -7.82,-10.93 -7.82,-19.21 0,-7.42 2.66,-13.58 8.01,-18.41 5.37,-4.83 11.59,-7.29 18.68,-7.29 6.88,0 12.91,2.18 18.21,6.56 5.3,4.44 7.94,10.79 7.94,19.14 0,8.14 -2.58,14.5 -7.74,19.08 -5.17,4.57 -11.27,6.88 -18.41,6.88zm128.94 53.91l0 6.43c9.35,-12.32 19.54,-21.33 30.6,-27.09 11.07,-5.76 23.78,-8.61 38.16,-8.61 13.97,0 26.43,3.05 37.48,9.15 10.99,6.02 19.21,14.63 24.64,25.76 3.52,6.5 5.76,13.45 6.82,21 1,7.48 1.53,17.02 1.53,28.68l0 98.62c0,10.59 -2.46,18.6 -7.29,24.04 -4.83,5.43 -11.2,8.14 -18.94,8.14 -7.88,0 -14.31,-2.78 -19.28,-8.35 -4.9,-5.56 -7.35,-13.51 -7.35,-23.84l0 -88.35c0,-17.42 -2.46,-30.8 -7.29,-40.08 -4.84,-9.21 -14.5,-13.83 -29.01,-13.83 -9.4,0 -18.01,2.78 -25.83,8.41 -7.75,5.63 -13.44,13.38 -17.02,23.24 -2.59,7.88 -3.91,22.59 -3.91,44.25l0 66.36c0,10.72 -2.52,18.74 -7.48,24.1 -4.97,5.37 -11.4,8.08 -19.21,8.08 -7.62,0 -13.9,-2.78 -18.81,-8.35 -4.9,-5.56 -7.36,-13.51 -7.36,-23.84l0 -153.12c0,-10.06 2.18,-17.62 6.56,-22.59 4.44,-4.97 10.4,-7.49 18.02,-7.49 4.63,0 8.87,1.13 12.58,3.31 3.77,2.18 6.75,5.5 9,9.87 2.25,4.37 3.38,9.8 3.38,16.09zm187.84 -24.51l12.58 0 0 -15.9c0,-16.55 2.12,-29.74 6.3,-39.54 4.17,-9.73 11.33,-16.82 21.32,-21.32 10,-4.44 23.72,-6.69 41.13,-6.69 30.93,0 46.43,7.55 46.43,22.66 0,4.9 -1.66,9.14 -4.9,12.58 -3.25,3.51 -7.02,5.23 -11.46,5.23 -2.05,0 -5.63,-0.4 -10.66,-1.13 -5.04,-0.79 -9.28,-1.19 -12.78,-1.19 -9.61,0 -15.7,2.85 -18.41,8.48 -2.72,5.63 -4.11,13.71 -4.11,24.17l0 12.65 12.99 0c20.2,0 30.27,6.09 30.27,18.22 0,8.61 -2.65,14.11 -8.01,16.42 -5.37,2.31 -12.78,3.51 -22.25,3.51l-12.99 0 0 140.28c0,10.46 -2.52,18.41 -7.48,23.91 -4.97,5.5 -11.4,8.28 -19.21,8.28 -7.49,0 -13.71,-2.78 -18.67,-8.28 -4.97,-5.5 -7.49,-13.45 -7.49,-23.91l0 -140.28 -14.57 0c-7.88,0 -13.98,-1.79 -18.21,-5.3 -4.3,-3.58 -6.43,-8.22 -6.43,-13.9 0,-12.65 8.87,-18.95 26.63,-18.95zm265.18 180.87c-12.84,9.93 -25.23,17.35 -37.16,22.32 -11.98,4.96 -25.43,7.42 -40.27,7.42 -13.57,0 -25.56,-2.72 -35.82,-8.08 -10.27,-5.37 -18.22,-12.58 -23.78,-21.79 -5.57,-9.21 -8.35,-19.14 -8.35,-29.87 0,-14.5 4.57,-26.82 13.77,-37.03 9.21,-10.26 21.86,-17.08 37.96,-20.59 3.3,-0.79 11.65,-2.52 24.96,-5.23 13.32,-2.71 24.78,-5.16 34.25,-7.48 9.47,-2.25 19.81,-4.97 30.93,-8.22 -0.67,-13.98 -3.45,-24.24 -8.42,-30.73 -5.03,-6.56 -15.3,-9.8 -30.99,-9.8 -13.44,0 -23.58,1.86 -30.34,5.63 -6.82,3.71 -12.65,9.34 -17.48,16.89 -4.83,7.49 -8.28,12.39 -10.27,14.84 -2.05,2.37 -6.36,3.57 -12.91,3.57 -5.96,0 -11.13,-1.92 -15.43,-5.76 -4.3,-3.77 -6.49,-8.67 -6.49,-14.63 0,-9.34 3.3,-18.41 9.86,-27.22 6.63,-8.81 16.9,-16.03 30.86,-21.73 13.98,-5.69 31.4,-8.54 52.26,-8.54 23.24,0 41.58,2.78 54.9,8.28 13.31,5.5 22.72,14.18 28.21,26.09 5.5,11.92 8.28,27.69 8.28,47.36 0,12.45 -0.06,22.98 -0.13,31.65 -0.07,8.68 -0.13,18.35 -0.26,28.95 0,9.93 1.66,20.33 4.96,31.12 3.31,10.73 4.9,17.68 4.9,20.8 0,5.43 -2.52,10.4 -7.61,14.83 -5.17,4.44 -10.93,6.69 -17.42,6.69 -5.44,0 -10.79,-2.52 -16.1,-7.62 -5.3,-5.09 -10.92,-12.45 -16.89,-22.12zm-3.51 -76.76c-7.75,2.85 -19.01,5.89 -33.84,9 -14.77,3.18 -25.04,5.57 -30.74,7.02 -5.69,1.53 -11.13,4.44 -16.29,8.74 -5.16,4.38 -7.75,10.4 -7.75,18.22 0,8.01 3.05,14.83 9.15,20.46 6.02,5.63 13.98,8.48 23.84,8.48 10.47,0 20.14,-2.32 28.94,-6.89 8.88,-4.64 15.37,-10.53 19.54,-17.82 4.77,-8.01 7.15,-21.26 7.15,-39.67l0 -7.55zm153.71 -79.61l0 6.43c9.35,-12.32 19.54,-21.33 30.6,-27.09 11.07,-5.76 23.78,-8.61 38.16,-8.61 13.97,0 26.43,3.05 37.48,9.15 10.99,6.02 19.21,14.63 24.64,25.76 3.52,6.5 5.76,13.45 6.82,21 1,7.48 1.53,17.02 1.53,28.68l0 98.62c0,10.59 -2.46,18.6 -7.29,24.04 -4.83,5.43 -11.2,8.14 -18.94,8.14 -7.88,0 -14.31,-2.78 -19.28,-8.35 -4.9,-5.56 -7.35,-13.51 -7.35,-23.84l0 -88.35c0,-17.42 -2.46,-30.8 -7.29,-40.08 -4.84,-9.21 -14.5,-13.83 -29.01,-13.83 -9.4,0 -18.01,2.78 -25.83,8.41 -7.75,5.63 -13.44,13.38 -17.02,23.24 -2.59,7.88 -3.91,22.59 -3.91,44.25l0 66.36c0,10.72 -2.52,18.74 -7.48,24.1 -4.97,5.37 -11.4,8.08 -19.21,8.08 -7.62,0 -13.9,-2.78 -18.81,-8.35 -4.9,-5.56 -7.36,-13.51 -7.36,-23.84l0 -153.12c0,-10.06 2.18,-17.62 6.56,-22.59 4.44,-4.97 10.4,-7.49 18.02,-7.49 4.63,0 8.87,1.13 12.58,3.31 3.77,2.18 6.75,5.5 9,9.87 2.25,4.37 3.38,9.8 3.38,16.09zm382.09 120.61c0,6.56 -1.99,13.64 -5.96,21.13 -3.91,7.48 -9.93,14.63 -18.02,21.39 -8.07,6.75 -18.28,12.25 -30.6,16.35 -12.25,4.17 -26.09,6.23 -41.52,6.23 -32.72,0 -58.29,-9.54 -76.63,-28.62 -18.41,-19.07 -27.62,-44.63 -27.62,-76.76 0,-21.73 4.23,-40.93 12.65,-57.62 8.41,-16.68 20.59,-29.6 36.49,-38.67 15.97,-9.15 34.97,-13.71 57.09,-13.71 13.7,0 26.28,1.99 37.74,6.02 11.4,4.04 21.13,9.21 29.08,15.57 7.94,6.36 14.04,13.11 18.21,20.26 4.23,7.22 6.36,13.9 6.36,20.13 0,6.37 -2.38,11.73 -7.08,16.17 -4.77,4.37 -10.47,6.56 -17.22,6.56 -4.38,0 -8.01,-1.13 -10.93,-3.39 -2.91,-2.25 -6.15,-5.89 -9.8,-10.92 -6.49,-9.8 -13.24,-17.22 -20.26,-22.12 -7.08,-4.9 -16.03,-7.36 -26.89,-7.36 -15.63,0 -28.28,6.09 -37.81,18.35 -9.61,12.19 -14.38,28.87 -14.38,50.07 0,9.93 1.26,19.07 3.71,27.42 2.46,8.35 5.96,15.5 10.67,21.32 4.63,5.9 10.26,10.34 16.89,13.38 6.56,3.05 13.84,4.57 21.73,4.57 10.59,0 19.66,-2.45 27.21,-7.35 7.62,-4.9 14.31,-12.45 20.14,-22.51 3.17,-5.96 6.69,-10.6 10.46,-13.91 3.71,-3.38 8.35,-5.09 13.77,-5.09 6.5,0 11.86,2.52 16.1,7.42 4.24,4.9 6.43,10.13 6.43,15.69zm98.94 -119.81l0 153.12c0,10.59 -2.52,18.6 -7.55,24.04 -5.03,5.43 -11.39,8.14 -19.14,8.14 -7.75,0 -14.04,-2.78 -18.88,-8.35 -4.83,-5.56 -7.29,-13.51 -7.29,-23.84l0 -151.54c0,-10.53 2.46,-18.41 7.29,-23.71 4.84,-5.31 11.13,-7.95 18.88,-7.95 7.75,0 14.11,2.65 19.14,7.95 5.03,5.3 7.55,12.71 7.55,22.12zm-26.15 -54.71c-7.36,0 -13.65,-2.25 -18.88,-6.75 -5.23,-4.51 -7.82,-10.93 -7.82,-19.21 0,-7.42 2.66,-13.58 8.01,-18.41 5.37,-4.83 11.59,-7.29 18.68,-7.29 6.88,0 12.91,2.18 18.21,6.56 5.3,4.44 7.94,10.79 7.94,19.14 0,8.14 -2.58,14.5 -7.74,19.08 -5.17,4.57 -11.27,6.88 -18.41,6.88z"/>
    <path class="fil3" d="M7770.15 11478.02c-12.84,9.93 -25.23,17.35 -37.16,22.32 -11.98,4.96 -25.43,7.42 -40.27,7.42 -13.57,0 -25.56,-2.72 -35.82,-8.08 -10.27,-5.37 -18.22,-12.58 -23.78,-21.79 -5.57,-9.21 -8.35,-19.14 -8.35,-29.87 0,-14.5 4.57,-26.82 13.77,-37.03 9.21,-10.26 21.86,-17.08 37.96,-20.59 3.3,-0.79 11.65,-2.52 24.96,-5.23 13.32,-2.71 24.78,-5.16 34.25,-7.48 9.47,-2.25 19.81,-4.97 30.93,-8.22 -0.67,-13.98 -3.45,-24.24 -8.42,-30.73 -5.03,-6.56 -15.3,-9.8 -30.99,-9.8 -13.44,0 -23.58,1.86 -30.34,5.63 -6.82,3.71 -12.65,9.34 -17.48,16.89 -4.83,7.49 -8.28,12.39 -10.27,14.84 -2.05,2.37 -6.36,3.57 -12.91,3.57 -5.96,0 -11.13,-1.92 -15.43,-5.76 -4.3,-3.77 -6.49,-8.67 -6.49,-14.63 0,-9.34 3.3,-18.41 9.86,-27.22 6.63,-8.81 16.9,-16.03 30.86,-21.73 13.98,-5.69 31.4,-8.54 52.26,-8.54 23.24,0 41.58,2.78 54.9,8.28 13.31,5.5 22.72,14.18 28.21,26.09 5.5,11.92 8.28,27.69 8.28,47.36 0,12.45 -0.06,22.98 -0.13,31.65 -0.07,8.68 -0.13,18.35 -0.26,28.95 0,9.93 1.66,20.33 4.96,31.12 3.31,10.73 4.9,17.68 4.9,20.8 0,5.43 -2.52,10.4 -7.61,14.83 -5.17,4.44 -10.93,6.69 -17.42,6.69 -5.44,0 -10.79,-2.52 -16.1,-7.62 -5.3,-5.09 -10.92,-12.45 -16.89,-22.12zm-3.51 -76.76c-7.75,2.85 -19.01,5.89 -33.84,9 -14.77,3.18 -25.04,5.57 -30.74,7.02 -5.69,1.53 -11.13,4.44 -16.29,8.74 -5.16,4.38 -7.75,10.4 -7.75,18.22 0,8.01 3.05,14.83 9.15,20.46 6.02,5.63 13.98,8.48 23.84,8.48 10.47,0 20.14,-2.32 28.94,-6.89 8.88,-4.64 15.37,-10.53 19.54,-17.82 4.77,-8.01 7.15,-21.26 7.15,-39.67l0 -7.55zm352.86 11.92l-103.65 0c0.13,12.06 2.59,22.65 7.29,31.85 4.71,9.21 10.99,16.1 18.82,20.74 7.81,4.7 16.49,7.01 25.89,7.01 6.36,0 12.13,-0.73 17.35,-2.24 5.31,-1.47 10.34,-3.78 15.24,-6.96 4.96,-3.17 9.47,-6.55 13.57,-10.2 4.17,-3.64 9.54,-8.54 16.17,-14.76 2.71,-2.32 6.55,-3.52 11.58,-3.52 5.44,0 9.87,1.53 13.25,4.51 3.31,2.91 5.03,7.15 5.03,12.58 0,4.77 -1.92,10.34 -5.63,16.75 -3.77,6.36 -9.4,12.52 -17.02,18.35 -7.55,5.89 -17.02,10.79 -28.48,14.63 -11.46,3.91 -24.64,5.83 -39.47,5.83 -34.04,0 -60.47,-9.74 -79.35,-29.14 -18.88,-19.4 -28.28,-45.7 -28.28,-78.94 0,-15.63 2.32,-30.2 6.95,-43.58 4.64,-13.38 11.46,-24.84 20.34,-34.44 8.93,-9.54 19.93,-16.89 32.97,-21.99 13.06,-5.09 27.56,-7.68 43.45,-7.68 20.73,0 38.48,4.38 53.24,13.12 14.83,8.74 25.9,20 33.32,33.9 7.35,13.84 11.06,27.95 11.06,42.32 0,13.32 -3.84,21.99 -11.45,25.96 -7.62,3.91 -18.35,5.9 -32.2,5.9zm-103.65 -30.2l96.04 0c-1.26,-18.08 -6.16,-31.59 -14.64,-40.59 -8.48,-8.94 -19.6,-13.45 -33.45,-13.45 -13.24,0 -24.04,4.57 -32.52,13.64 -8.48,9.15 -13.64,22.59 -15.43,40.4zm344.19 -60.53l0 153.12c0,10.59 -2.52,18.6 -7.55,24.04 -5.03,5.43 -11.39,8.14 -19.14,8.14 -7.75,0 -14.04,-2.78 -18.88,-8.35 -4.83,-5.56 -7.29,-13.51 -7.29,-23.84l0 -151.54c0,-10.53 2.46,-18.41 7.29,-23.71 4.84,-5.31 11.13,-7.95 18.88,-7.95 7.75,0 14.11,2.65 19.14,7.95 5.03,5.3 7.55,12.71 7.55,22.12zm-26.15 -54.71c-7.36,0 -13.65,-2.25 -18.88,-6.75 -5.23,-4.51 -7.82,-10.93 -7.82,-19.21 0,-7.42 2.66,-13.58 8.01,-18.41 5.37,-4.83 11.59,-7.29 18.68,-7.29 6.88,0 12.91,2.18 18.21,6.56 5.3,4.44 7.94,10.79 7.94,19.14 0,8.14 -2.58,14.5 -7.74,19.08 -5.17,4.57 -11.27,6.88 -18.41,6.88zm128.94 53.91l0 6.43c9.35,-12.32 19.54,-21.33 30.6,-27.09 11.07,-5.76 23.78,-8.61 38.16,-8.61 13.97,0 26.43,3.05 37.48,9.15 10.99,6.02 19.21,14.63 24.64,25.76 3.52,6.5 5.76,13.45 6.82,21 1,7.48 1.53,17.02 1.53,28.68l0 98.62c0,10.59 -2.46,18.6 -7.29,24.04 -4.83,5.43 -11.2,8.14 -18.94,8.14 -7.88,0 -14.31,-2.78 -19.28,-8.35 -4.9,-5.56 -7.35,-13.51 -7.35,-23.84l0 -88.35c0,-17.42 -2.46,-30.8 -7.29,-40.08 -4.84,-9.21 -14.5,-13.83 -29.01,-13.83 -9.4,0 -18.01,2.78 -25.83,8.41 -7.75,5.63 -13.44,13.38 -17.02,23.24 -2.59,7.88 -3.91,22.59 -3.91,44.25l0 66.36c0,10.72 -2.52,18.74 -7.48,24.1 -4.97,5.37 -11.4,8.08 -19.21,8.08 -7.62,0 -13.9,-2.78 -18.81,-8.35 -4.9,-5.56 -7.36,-13.51 -7.36,-23.84l0 -153.12c0,-10.06 2.18,-17.62 6.56,-22.59 4.44,-4.97 10.4,-7.49 18.02,-7.49 4.63,0 8.87,1.13 12.58,3.31 3.77,2.18 6.75,5.5 9,9.87 2.25,4.37 3.38,9.8 3.38,16.09zm382.09 120.61c0,6.56 -1.99,13.64 -5.96,21.13 -3.91,7.48 -9.93,14.63 -18.02,21.39 -8.07,6.75 -18.28,12.25 -30.6,16.35 -12.25,4.17 -26.09,6.23 -41.52,6.23 -32.72,0 -58.29,-9.54 -76.63,-28.62 -18.41,-19.07 -27.62,-44.63 -27.62,-76.76 0,-21.73 4.23,-40.93 12.65,-57.62 8.41,-16.68 20.59,-29.6 36.49,-38.67 15.97,-9.15 34.97,-13.71 57.09,-13.71 13.7,0 26.28,1.99 37.74,6.02 11.4,4.04 21.13,9.21 29.08,15.57 7.94,6.36 14.04,13.11 18.21,20.26 4.23,7.22 6.36,13.9 6.36,20.13 0,6.37 -2.38,11.73 -7.08,16.17 -4.77,4.37 -10.47,6.56 -17.22,6.56 -4.38,0 -8.01,-1.13 -10.93,-3.39 -2.91,-2.25 -6.15,-5.89 -9.8,-10.92 -6.49,-9.8 -13.24,-17.22 -20.26,-22.12 -7.08,-4.9 -16.03,-7.36 -26.89,-7.36 -15.63,0 -28.28,6.09 -37.81,18.35 -9.61,12.19 -14.38,28.87 -14.38,50.07 0,9.93 1.26,19.07 3.71,27.42 2.46,8.35 5.96,15.5 10.67,21.32 4.63,5.9 10.26,10.34 16.89,13.38 6.56,3.05 13.84,4.57 21.73,4.57 10.59,0 19.66,-2.45 27.21,-7.35 7.62,-4.9 14.31,-12.45 20.14,-22.51 3.17,-5.96 6.69,-10.6 10.46,-13.91 3.71,-3.38 8.35,-5.09 13.77,-5.09 6.5,0 11.86,2.52 16.1,7.42 4.24,4.9 6.43,10.13 6.43,15.69zm36.22 33.32l0 -229.69c0,-10.59 2.38,-18.6 7.09,-24.04 4.7,-5.43 11.06,-8.14 19.07,-8.14 7.95,0 14.44,2.72 19.34,8.08 4.9,5.37 7.35,13.38 7.35,24.1l0 229.69c0,10.72 -2.52,18.74 -7.48,24.1 -4.97,5.37 -11.39,8.08 -19.21,8.08 -7.75,0 -14.04,-2.78 -18.88,-8.35 -4.83,-5.56 -7.29,-13.51 -7.29,-23.84zm245.12 2.31l0 -6.82c-6.36,8.01 -12.99,14.77 -20,20.2 -6.96,5.43 -14.57,9.47 -22.86,12.12 -8.28,2.65 -17.67,3.98 -28.27,3.98 -12.85,0 -24.3,-2.66 -34.44,-7.95 -10.14,-5.3 -18.02,-12.58 -23.58,-21.92 -6.56,-11.26 -9.87,-27.43 -9.87,-48.55l0 -104.91c0,-10.66 2.38,-18.54 7.15,-23.78 4.77,-5.23 11.13,-7.88 19.01,-7.88 7.94,0 14.44,2.65 19.34,7.95 4.9,5.3 7.35,13.18 7.35,23.71l0 84.77c0,12.26 1.06,22.59 3.11,30.93 2.05,8.35 5.76,14.91 11.13,19.6 5.37,4.7 12.65,7.08 21.86,7.08 8.94,0 17.35,-2.65 25.23,-7.94 7.88,-5.31 13.64,-12.26 17.29,-20.8 2.98,-7.49 4.44,-23.91 4.44,-49.27l0 -64.38c0,-10.53 2.45,-18.41 7.35,-23.71 4.97,-5.31 11.4,-7.95 19.28,-7.95 7.88,0 14.24,2.65 19.01,7.88 4.83,5.23 7.22,13.12 7.22,23.78l0 153.46c0,10.06 -2.31,17.61 -6.89,22.72 -4.63,5.03 -10.53,7.55 -17.82,7.55 -7.22,0 -13.24,-2.65 -17.95,-7.88 -4.7,-5.23 -7.08,-12.58 -7.08,-21.99zm273.06 -39.27c0,14.56 -3.58,27.08 -10.66,37.48 -7.08,10.4 -17.61,18.28 -31.53,23.65 -13.9,5.37 -30.79,8.01 -50.73,8.01 -19.01,0 -35.3,-2.91 -48.88,-8.74 -13.57,-5.76 -23.58,-13.05 -30.06,-21.8 -6.43,-8.67 -9.67,-17.41 -9.67,-26.22 0,-5.83 2.05,-10.79 6.22,-14.91 4.1,-4.16 9.34,-6.22 15.69,-6.22 5.57,0 9.8,1.39 12.78,4.11 2.98,2.71 5.83,6.49 8.55,11.46 5.43,9.4 11.91,16.49 19.46,21.12 7.56,4.71 17.89,7.02 30.93,7.02 10.6,0 19.27,-2.38 26.03,-7.08 6.82,-4.71 10.2,-10.14 10.2,-16.23 0,-9.34 -3.51,-16.1 -10.53,-20.4 -7.08,-4.23 -18.67,-8.34 -34.83,-12.25 -18.22,-4.51 -33.05,-9.28 -44.51,-14.24 -11.39,-4.97 -20.52,-11.59 -27.42,-19.74 -6.82,-8.14 -10.27,-18.22 -10.27,-30.07 0,-10.66 3.18,-20.67 9.47,-30.13 6.37,-9.47 15.7,-16.96 28.08,-22.59 12.32,-5.63 27.22,-8.48 44.71,-8.48 13.71,0 26.03,1.39 36.89,4.24 10.92,2.85 20.07,6.69 27.35,11.46 7.35,4.83 12.91,10.13 16.68,15.96 3.84,5.83 5.76,11.46 5.76,17.09 0,6.02 -2.05,11.07 -6.15,14.91 -4.04,3.9 -9.87,5.82 -17.35,5.82 -5.44,0 -10.06,-1.52 -13.91,-4.63 -3.77,-3.11 -8.14,-7.75 -13.11,-13.98 -3.97,-5.16 -8.68,-9.34 -14.11,-12.45 -5.44,-3.11 -12.78,-4.64 -22.12,-4.64 -9.54,0 -17.49,2.05 -23.85,6.09 -6.29,4.1 -9.47,9.21 -9.47,15.3 0,5.56 2.31,10.14 6.95,13.64 4.71,3.58 10.93,6.56 18.82,8.87 7.88,2.32 18.74,5.16 32.58,8.55 16.43,3.97 29.87,8.8 40.27,14.37 10.4,5.56 18.28,12.12 23.65,19.74 5.37,7.55 8.07,16.16 8.07,25.9zm97.76 -116.17l0 153.12c0,10.59 -2.52,18.6 -7.55,24.04 -5.03,5.43 -11.39,8.14 -19.14,8.14 -7.75,0 -14.04,-2.78 -18.88,-8.35 -4.83,-5.56 -7.29,-13.51 -7.29,-23.84l0 -151.54c0,-10.53 2.46,-18.41 7.29,-23.71 4.84,-5.31 11.13,-7.95 18.88,-7.95 7.75,0 14.11,2.65 19.14,7.95 5.03,5.3 7.55,12.71 7.55,22.12zm-26.15 -54.71c-7.36,0 -13.65,-2.25 -18.88,-6.75 -5.23,-4.51 -7.82,-10.93 -7.82,-19.21 0,-7.42 2.66,-13.58 8.01,-18.41 5.37,-4.83 11.59,-7.29 18.68,-7.29 6.88,0 12.91,2.18 18.21,6.56 5.3,4.44 7.94,10.79 7.94,19.14 0,8.14 -2.58,14.5 -7.74,19.08 -5.17,4.57 -11.27,6.88 -18.41,6.88zm279.29 132.4c0,15.82 -2.45,30.33 -7.35,43.64 -4.97,13.31 -12.06,24.77 -21.39,34.31 -9.28,9.6 -20.47,16.89 -33.39,21.99 -12.91,5.09 -27.49,7.68 -43.64,7.68 -16.09,0 -30.53,-2.59 -43.31,-7.75 -12.78,-5.16 -23.91,-12.58 -33.32,-22.25 -9.34,-9.6 -16.49,-21 -21.32,-34.1 -4.84,-13.19 -7.29,-27.69 -7.29,-43.58 0,-16.03 2.45,-30.73 7.35,-44.04 4.97,-13.32 11.99,-24.71 21.2,-34.18 9.21,-9.41 20.33,-16.69 33.38,-21.79 13.05,-5.1 27.49,-7.69 43.31,-7.69 16.03,0 30.6,2.59 43.64,7.75 13.06,5.16 24.24,12.58 33.58,22.19 9.34,9.53 16.43,20.93 21.26,34.18 4.84,13.18 7.29,27.75 7.29,43.64zm-53.24 0c0,-21.59 -4.77,-38.35 -14.24,-50.4 -9.54,-11.98 -22.26,-18.02 -38.29,-18.02 -10.4,0 -19.47,2.66 -27.35,8.01 -7.87,5.37 -13.97,13.32 -18.21,23.78 -4.3,10.47 -6.43,22.72 -6.43,36.63 0,13.83 2.12,25.96 6.3,36.29 4.23,10.34 10.2,18.28 18.02,23.78 7.81,5.5 17.09,8.22 27.68,8.22 16.03,0 28.75,-6.03 38.29,-18.15 9.47,-12.06 14.24,-28.81 14.24,-50.13zm-46.49 -183.66l26.22 0c6.62,0 9.93,1 9.93,2.92 0,0.99 -3.64,5.23 -10.86,12.58 -7.29,7.36 -14.57,14.37 -21.99,21.13 -7.35,6.69 -12.51,10.79 -15.36,12.19 -7.36,3.77 -15.3,5.63 -23.71,5.63 -5.57,0 -8.35,-1.6 -8.35,-4.84 0,-2.18 1.66,-6.02 5.03,-11.46l8.74 -16.22c5.1,-9.47 9.47,-15.5 13.25,-18.08 3.77,-2.59 9.47,-3.85 17.09,-3.85zm189.41 105.17l0 6.43c9.35,-12.32 19.54,-21.33 30.6,-27.09 11.07,-5.76 23.78,-8.61 38.16,-8.61 13.97,0 26.43,3.05 37.48,9.15 10.99,6.02 19.21,14.63 24.64,25.76 3.52,6.5 5.76,13.45 6.82,21 1,7.48 1.53,17.02 1.53,28.68l0 98.62c0,10.59 -2.46,18.6 -7.29,24.04 -4.83,5.43 -11.2,8.14 -18.94,8.14 -7.88,0 -14.31,-2.78 -19.28,-8.35 -4.9,-5.56 -7.35,-13.51 -7.35,-23.84l0 -88.35c0,-17.42 -2.46,-30.8 -7.29,-40.08 -4.84,-9.21 -14.5,-13.83 -29.01,-13.83 -9.4,0 -18.01,2.78 -25.83,8.41 -7.75,5.63 -13.44,13.38 -17.02,23.24 -2.59,7.88 -3.91,22.59 -3.91,44.25l0 66.36c0,10.72 -2.52,18.74 -7.48,24.1 -4.97,5.37 -11.4,8.08 -19.21,8.08 -7.62,0 -13.9,-2.78 -18.81,-8.35 -4.9,-5.56 -7.36,-13.51 -7.36,-23.84l0 -153.12c0,-10.06 2.18,-17.62 6.56,-22.59 4.44,-4.97 10.4,-7.49 18.02,-7.49 4.63,0 8.87,1.13 12.58,3.31 3.77,2.18 6.75,5.5 9,9.87 2.25,4.37 3.38,9.8 3.38,16.09zm461.89 116.97c0,14.56 -3.58,27.08 -10.66,37.48 -7.08,10.4 -17.61,18.28 -31.53,23.65 -13.9,5.37 -30.79,8.01 -50.73,8.01 -19.01,0 -35.3,-2.91 -48.88,-8.74 -13.57,-5.76 -23.58,-13.05 -30.06,-21.8 -6.43,-8.67 -9.67,-17.41 -9.67,-26.22 0,-5.83 2.05,-10.79 6.22,-14.91 4.1,-4.16 9.34,-6.22 15.69,-6.22 5.57,0 9.8,1.39 12.78,4.11 2.98,2.71 5.83,6.49 8.55,11.46 5.43,9.4 11.91,16.49 19.46,21.12 7.56,4.71 17.89,7.02 30.93,7.02 10.6,0 19.27,-2.38 26.03,-7.08 6.82,-4.71 10.2,-10.14 10.2,-16.23 0,-9.34 -3.51,-16.1 -10.53,-20.4 -7.08,-4.23 -18.67,-8.34 -34.83,-12.25 -18.22,-4.51 -33.05,-9.28 -44.51,-14.24 -11.39,-4.97 -20.52,-11.59 -27.42,-19.74 -6.82,-8.14 -10.27,-18.22 -10.27,-30.07 0,-10.66 3.18,-20.67 9.47,-30.13 6.37,-9.47 15.7,-16.96 28.08,-22.59 12.32,-5.63 27.22,-8.48 44.71,-8.48 13.71,0 26.03,1.39 36.89,4.24 10.92,2.85 20.07,6.69 27.35,11.46 7.35,4.83 12.91,10.13 16.68,15.96 3.84,5.83 5.76,11.46 5.76,17.09 0,6.02 -2.05,11.07 -6.15,14.91 -4.04,3.9 -9.87,5.82 -17.35,5.82 -5.44,0 -10.06,-1.52 -13.91,-4.63 -3.77,-3.11 -8.14,-7.75 -13.11,-13.98 -3.97,-5.16 -8.68,-9.34 -14.11,-12.45 -5.44,-3.11 -12.78,-4.64 -22.12,-4.64 -9.54,0 -17.49,2.05 -23.85,6.09 -6.29,4.1 -9.47,9.21 -9.47,15.3 0,5.56 2.31,10.14 6.95,13.64 4.71,3.58 10.93,6.56 18.82,8.87 7.88,2.32 18.74,5.16 32.58,8.55 16.43,3.97 29.87,8.8 40.27,14.37 10.4,5.56 18.28,12.12 23.65,19.74 5.37,7.55 8.07,16.16 8.07,25.9zm243.2 -38.48c0,15.82 -2.45,30.33 -7.35,43.64 -4.97,13.31 -12.06,24.77 -21.39,34.31 -9.28,9.6 -20.47,16.89 -33.39,21.99 -12.91,5.09 -27.49,7.68 -43.64,7.68 -16.09,0 -30.53,-2.59 -43.31,-7.75 -12.78,-5.16 -23.91,-12.58 -33.32,-22.25 -9.34,-9.6 -16.49,-21 -21.32,-34.1 -4.84,-13.19 -7.29,-27.69 -7.29,-43.58 0,-16.03 2.45,-30.73 7.35,-44.04 4.97,-13.32 11.99,-24.71 21.2,-34.18 9.21,-9.41 20.33,-16.69 33.38,-21.79 13.05,-5.1 27.49,-7.69 43.31,-7.69 16.03,0 30.6,2.59 43.64,7.75 13.06,5.16 24.24,12.58 33.58,22.19 9.34,9.53 16.43,20.93 21.26,34.18 4.84,13.18 7.29,27.75 7.29,43.64zm-53.24 0c0,-21.59 -4.77,-38.35 -14.24,-50.4 -9.54,-11.98 -22.26,-18.02 -38.29,-18.02 -10.4,0 -19.47,2.66 -27.35,8.01 -7.87,5.37 -13.97,13.32 -18.21,23.78 -4.3,10.47 -6.43,22.72 -6.43,36.63 0,13.83 2.12,25.96 6.3,36.29 4.23,10.34 10.2,18.28 18.02,23.78 7.81,5.5 17.09,8.22 27.68,8.22 16.03,0 28.75,-6.03 38.29,-18.15 9.47,-12.06 14.24,-28.81 14.24,-50.13zm284.99 42.12c0,6.56 -1.99,13.64 -5.96,21.13 -3.91,7.48 -9.93,14.63 -18.02,21.39 -8.07,6.75 -18.28,12.25 -30.6,16.35 -12.25,4.17 -26.09,6.23 -41.52,6.23 -32.72,0 -58.29,-9.54 -76.63,-28.62 -18.41,-19.07 -27.62,-44.63 -27.62,-76.76 0,-21.73 4.23,-40.93 12.65,-57.62 8.41,-16.68 20.59,-29.6 36.49,-38.67 15.97,-9.15 34.97,-13.71 57.09,-13.71 13.7,0 26.28,1.99 37.74,6.02 11.4,4.04 21.13,9.21 29.08,15.57 7.94,6.36 14.04,13.11 18.21,20.26 4.23,7.22 6.36,13.9 6.36,20.13 0,6.37 -2.38,11.73 -7.08,16.17 -4.77,4.37 -10.47,6.56 -17.22,6.56 -4.38,0 -8.01,-1.13 -10.93,-3.39 -2.91,-2.25 -6.15,-5.89 -9.8,-10.92 -6.49,-9.8 -13.24,-17.22 -20.26,-22.12 -7.08,-4.9 -16.03,-7.36 -26.89,-7.36 -15.63,0 -28.28,6.09 -37.81,18.35 -9.61,12.19 -14.38,28.87 -14.38,50.07 0,9.93 1.26,19.07 3.71,27.42 2.46,8.35 5.96,15.5 10.67,21.32 4.63,5.9 10.26,10.34 16.89,13.38 6.56,3.05 13.84,4.57 21.73,4.57 10.59,0 19.66,-2.45 27.21,-7.35 7.62,-4.9 14.31,-12.45 20.14,-22.51 3.17,-5.96 6.69,-10.6 10.46,-13.91 3.71,-3.38 8.35,-5.09 13.77,-5.09 6.5,0 11.86,2.52 16.1,7.42 4.24,4.9 6.43,10.13 6.43,15.69zm98.94 -119.81l0 153.12c0,10.59 -2.52,18.6 -7.55,24.04 -5.03,5.43 -11.39,8.14 -19.14,8.14 -7.75,0 -14.04,-2.78 -18.88,-8.35 -4.83,-5.56 -7.29,-13.51 -7.29,-23.84l0 -151.54c0,-10.53 2.46,-18.41 7.29,-23.71 4.84,-5.31 11.13,-7.95 18.88,-7.95 7.75,0 14.11,2.65 19.14,7.95 5.03,5.3 7.55,12.71 7.55,22.12zm-26.15 -54.71c-7.36,0 -13.65,-2.25 -18.88,-6.75 -5.23,-4.51 -7.82,-10.93 -7.82,-19.21 0,-7.42 2.66,-13.58 8.01,-18.41 5.37,-4.83 11.59,-7.29 18.68,-7.29 6.88,0 12.91,2.18 18.21,6.56 5.3,4.44 7.94,10.79 7.94,19.14 0,8.14 -2.58,14.5 -7.74,19.08 -5.17,4.57 -11.27,6.88 -18.41,6.88zm214.85 210.28c-12.84,9.93 -25.23,17.35 -37.16,22.32 -11.98,4.96 -25.43,7.42 -40.27,7.42 -13.57,0 -25.56,-2.72 -35.82,-8.08 -10.27,-5.37 -18.22,-12.58 -23.78,-21.79 -5.57,-9.21 -8.35,-19.14 -8.35,-29.87 0,-14.5 4.57,-26.82 13.77,-37.03 9.21,-10.26 21.86,-17.08 37.96,-20.59 3.3,-0.79 11.65,-2.52 24.96,-5.23 13.32,-2.71 24.78,-5.16 34.25,-7.48 9.47,-2.25 19.81,-4.97 30.93,-8.22 -0.67,-13.98 -3.45,-24.24 -8.42,-30.73 -5.03,-6.56 -15.3,-9.8 -30.99,-9.8 -13.44,0 -23.58,1.86 -30.34,5.63 -6.82,3.71 -12.65,9.34 -17.48,16.89 -4.83,7.49 -8.28,12.39 -10.27,14.84 -2.05,2.37 -6.36,3.57 -12.91,3.57 -5.96,0 -11.13,-1.92 -15.43,-5.76 -4.3,-3.77 -6.49,-8.67 -6.49,-14.63 0,-9.34 3.3,-18.41 9.86,-27.22 6.63,-8.81 16.9,-16.03 30.86,-21.73 13.98,-5.69 31.4,-8.54 52.26,-8.54 23.24,0 41.58,2.78 54.9,8.28 13.31,5.5 22.72,14.18 28.21,26.09 5.5,11.92 8.28,27.69 8.28,47.36 0,12.45 -0.06,22.98 -0.13,31.65 -0.07,8.68 -0.13,18.35 -0.26,28.95 0,9.93 1.66,20.33 4.96,31.12 3.31,10.73 4.9,17.68 4.9,20.8 0,5.43 -2.52,10.4 -7.61,14.83 -5.17,4.44 -10.93,6.69 -17.42,6.69 -5.44,0 -10.79,-2.52 -16.1,-7.62 -5.3,-5.09 -10.92,-12.45 -16.89,-22.12zm-3.51 -76.76c-7.75,2.85 -19.01,5.89 -33.84,9 -14.77,3.18 -25.04,5.57 -30.74,7.02 -5.69,1.53 -11.13,4.44 -16.29,8.74 -5.16,4.38 -7.75,10.4 -7.75,18.22 0,8.01 3.05,14.83 9.15,20.46 6.02,5.63 13.98,8.48 23.84,8.48 10.47,0 20.14,-2.32 28.94,-6.89 8.88,-4.64 15.37,-10.53 19.54,-17.82 4.77,-8.01 7.15,-21.26 7.15,-39.67l0 -7.55zm105.76 74.31l0 -229.69c0,-10.59 2.38,-18.6 7.09,-24.04 4.7,-5.43 11.06,-8.14 19.07,-8.14 7.95,0 14.44,2.72 19.34,8.08 4.9,5.37 7.35,13.38 7.35,24.1l0 229.69c0,10.72 -2.52,18.74 -7.48,24.1 -4.97,5.37 -11.39,8.08 -19.21,8.08 -7.75,0 -14.04,-2.78 -18.88,-8.35 -4.83,-5.56 -7.29,-13.51 -7.29,-23.84z"/>
   </g>
   <g>
    <path class="fil4" d="M10766.84 5570.78c-362.02,239.59 -852.88,292.55 -1185.46,116.53 -170.05,-121.84 -252.73,-201.88 -320.99,-266.01 -178.76,-167.92 -357.57,0 -308.81,184.21 12.96,48.94 48.5,145.36 102.84,265.29 174.97,386.24 327.83,660.08 630.65,860.32l-4.24 -2.82c292.43,-333.64 657.88,-563 1085.36,-569.31 162.9,-2.38 329.1,115.75 471.54,323.61 283.14,-338.59 478.9,-805.99 525.62,-1158.82 48.77,-368.4 64.55,-758.45 -157.1,-736.8 -179.49,17.52 -191.71,264.83 -375.86,539.1 -129.41,192.72 -303.38,338.71 -463.54,444.69z"/>
    <path class="fil5" d="M11237.72 6482.62c295.49,431.2 488.65,1248.79 337.5,2179.32 -65.33,276.24 -463.06,248.57 -518.27,0 -206.46,-681.68 -558.24,-1397.61 -1561.06,-247.23 -249.7,334.19 -584.73,175.36 -575.27,-43.51 100.36,-545.88 366.44,-1199.07 769.67,-1653.59l-9.47 10.71c84.71,56.45 181.18,107.1 293.25,152.77 480.73,195.85 968.3,-64.83 1225.86,-354.58 12.75,-14.37 25.35,-28.99 37.78,-43.89z"/>
    <path class="fil4" d="M10281.58 4608.71c276.78,0 501.15,224.38 501.15,501.15 0,276.77 -224.37,501.15 -501.15,501.15 -276.77,0 -501.14,-224.38 -501.14,-501.15 0,-276.77 224.37,-501.15 501.14,-501.15z"/>
    <path class="fil6" d="M9680.83 6728.31c84.71,56.45 181.18,107.1 293.25,152.77 480.73,195.85 968.3,-64.83 1225.86,-354.58 12.75,-14.37 25.35,-28.99 37.78,-43.89 -142.44,-207.85 -308.64,-325.99 -471.54,-323.61 -427.48,6.31 -792.92,235.66 -1085.36,569.31z"/>
    <path class="fil7" d="M10844.85 5893.01c-15.27,-19.06 -49.98,-79.77 -118.09,-117.36 -178.41,-98.43 -366.87,157.04 -250.47,341.48 58.41,92.54 302.43,358.03 436.47,358.1 13.55,0.01 36.75,-3.05 53.5,-6.85 130.64,-29.6 299.82,-352.45 333.02,-457.14 65.93,-207.89 -181.07,-407.35 -328.74,-266.96 -56.39,53.62 -74.59,121.13 -84.54,143.43 -10.04,22.5 -25.74,24.53 -41.15,5.3z"/>
   </g>
  </g>
 </g>
</svg>
