<svg id="Capa_1" data-name="Capa 1" xmlns="http://www.w3.org/2000/svg" xmlns:xlink="http://www.w3.org/1999/xlink" viewBox="0 0 5067.07 2867.42"><defs><style>.cls-1,.cls-2{fill:none;}.cls-2{clip-rule:evenodd;}.cls-3{clip-path:url(#clip-path);}.cls-4{fill:#2957a4;}.cls-4,.cls-5,.cls-6,.cls-7,.cls-8{fill-rule:evenodd;}.cls-5{fill:#81d4f7;}.cls-6{fill:#f6afce;}.cls-7{fill:#c882b6;}.cls-8{fill:#fff;}.cls-9{clip-path:url(#clip-path-2);}.cls-10{clip-path:url(#clip-path-3);}</style><clipPath id="clip-path" transform="translate(1902.07 109.13)"><rect class="cls-1" width="3092" height="1600"/></clipPath><clipPath id="clip-path-2" transform="translate(1902.07 109.13)"><path class="cls-2" d="M-282.41,1159.29c-61.29,6-65.47,90.43-128.35,184.09C-454.95,1409.19-514.35,1459-569,1495.23c-123.62,81.81-291.23,99.89-404.8,39.79-58.07-41.61-86.3-68.94-109.61-90.83-61-57.34-122.1,0-105.45,62.9,4.43,16.71,16.57,49.63,35.12,90.58,59.47,131.27,111.47,224.51,213.91,292.8h0l0,0c-135.89,155-225.62,376-259.63,561-3.22,74.74,111.18,129,196.44,14.86C-660.6,2073.52-540.48,2318-470,2550.75c18.85,84.88,154.66,94.33,177,0,51.61-317.75-14.35-596.92-115.24-744.16,96.68-115.62,163.53-275.22,179.48-395.7C-212.12,1285.09-206.73,1151.9-282.41,1159.29ZM-660.19,1707.6c-.59.14-1.2.26-1.79.41C-661.39,1707.86-660.78,1707.74-660.19,1707.6ZM-811,1775.31c-2.06,1.38-4.14,2.75-6.19,4.16C-815.17,1778.06-813.09,1776.69-811,1775.31Zm112.17-56.44-.93.31Zm-10.5,3.78c-.92.34-1.86.66-2.77,1C-711.22,1723.31-710.28,1723-709.36,1722.65Zm-22,8.85c-5.72,2.48-11.42,5-17,7.75C-742.74,1736.53-737,1734-731.32,1731.5ZM-754,1742.07c-2.05,1-4.11,2-6.15,3.07C-758.15,1744.09-756.09,1743.1-754,1742.07Zm-9.36,4.78c-2.83,1.49-5.66,3-8.46,4.52C-769.06,1749.82-766.23,1748.34-763.4,1746.85Zm-13.87,7.59c-2.05,1.16-4.1,2.29-6.14,3.48C-781.37,1756.73-779.32,1755.6-777.27,1754.44ZM-802,1769.38c-1.36.87-2.73,1.71-4.09,2.6C-804.73,1771.09-803.36,1770.25-802,1769.38Zm-118.86,100.16c.68-.72,1.37-1.42,2.05-2.14C-919.49,1868.12-920.18,1868.82-920.86,1869.54Zm98.41-86.36c-1.92,1.36-3.86,2.7-5.77,4.08C-826.31,1785.88-824.37,1784.54-822.45,1783.18Zm-22.92,17.08c-1.47,1.15-3,2.28-4.42,3.45C-848.33,1802.54-846.84,1801.41-845.37,1800.26Zm-7.37,5.85c-2.55,2.07-5.1,4.13-7.63,6.23C-857.84,1810.24-855.29,1808.18-852.74,1806.11Zm-15,12.53c-1,.88-2,1.73-3,2.61C-869.79,1820.37-868.77,1819.52-867.75,1818.64Zm-20.76,18.65c-.91.85-1.84,1.69-2.75,2.55C-890.35,1839-889.42,1838.14-888.51,1837.29Zm34.67,99.43q6.92,3,14.09,5.93Q-846.92,1939.73-853.84,1936.72Zm-26.77-12.34c2.7,1.32,5.48,2.62,8.24,3.92C-875.13,1927-877.91,1925.7-880.61,1924.38Zm13.14,6.25c2.88,1.33,5.85,2.63,8.8,3.94C-861.62,1933.26-864.59,1932-867.47,1930.63Z"/></clipPath><clipPath id="clip-path-3" transform="translate(1902.07 109.13)"><path class="cls-2" d="M-734.74,1509a171.12,171.12,0,0,0,171.12-171.12,171.12,171.12,0,0,0-171.12-171.13,171.13,171.13,0,0,0-171.13,171.13A171.13,171.13,0,0,0-734.74,1509Z"/></clipPath><image id="image" width="720" height="487" xlink:href="FB_IMG_1594846938241.jpg"/></defs><title>sinlogo</title><g class="cls-3"><path class="cls-4" d="M3165,1600H1681.92S1441.46,532,1772,0c152.56-245.55,1393,0,1393,0Z" transform="translate(1902.07 109.13)"/><path class="cls-5" d="M1422.51,376.45c-142.64,94.41-336,115.27-467.09,45.92-67-48-99.58-79.54-126.47-104.81-70.44-66.16-140.89,0-121.68,72.58,5.11,19.28,19.11,57.27,40.52,104.53,68.94,152.18,129.17,260.08,248.49,339l-1.67-1.11c115.22-131.46,259.21-221.83,427.64-224.31,64.18-.94,129.67,45.61,185.79,127.51,111.56-133.41,188.69-317.57,207.1-456.59,19.22-145.16,25.43-298.84-61.9-290.31-70.72,6.9-75.53,104.34-148.09,212.41C1554.16,277.17,1485.62,334.69,1422.51,376.45Z" transform="translate(1902.07 109.13)"/><path class="cls-6" d="M1608,735.73c116.42,169.89,192.53,492,133,858.67-25.74,108.84-182.45,97.94-204.21,0-81.34-268.58-220-550.67-615.07-97.41-98.38,131.68-230.39,69.09-226.66-17.14,39.54-215.09,144.38-472.45,303.26-651.54l-3.73,4.22c33.37,22.24,71.38,42.2,115.54,60.2,189.42,77.16,381.52-25.55,483-139.71Q1600.7,744.53,1608,735.73Z" transform="translate(1902.07 109.13)"/><path class="cls-5" d="M1231.31-2.61c109,0,197.46,88.4,197.46,197.45S1340.36,392.3,1231.31,392.3s-197.45-88.41-197.45-197.46S1122.26-2.61,1231.31-2.61Z" transform="translate(1902.07 109.13)"/><path class="cls-7" d="M994.61,832.53c33.37,22.24,71.38,42.2,115.54,60.2,189.42,77.16,381.52-25.55,483-139.71q7.55-8.49,14.89-17.29c-56.12-81.9-121.61-128.45-185.79-127.51C1253.82,610.7,1109.83,701.07,994.61,832.53Z" transform="translate(1902.07 109.13)"/><path class="cls-8" d="M1453.24,503.41c-6-7.51-19.69-31.43-46.52-46.24-70.3-38.78-144.55,61.88-98.69,134.55,23,36.46,119.16,141.07,172,141.1a114.1,114.1,0,0,0,21.07-2.7c51.48-11.67,118.14-138.87,131.22-180.12,26-81.91-71.35-160.5-129.53-105.19-22.22,21.13-29.39,47.73-33.31,56.52S1459.32,511,1453.24,503.41Z" transform="translate(1902.07 109.13)"/><g class="cls-9"><use transform="translate(0 1235.4) scale(2.99)" xlink:href="#image"/><use transform="translate(14.03 1410.76) scale(2.99)" xlink:href="#image"/></g><g class="cls-10"><use transform="translate(14.03 1270.47) scale(2.99)" xlink:href="#image"/><use transform="translate(14.03 1410.76) scale(2.99)" xlink:href="#image"/></g></g></svg>